<svg xmlns="http://www.w3.org/2000/svg" viewBox="0 0 207.62826 19.07564"><defs><style>.cls-1{fill:#4ac9e9;}.cls-2{fill:#ffe144;}.cls-3{fill:#f44;}.cls-4{fill:#785bd6;}.cls-5{fill:#ffa543;}.cls-6{fill:#448fff;}</style></defs><g id="Layer_2" data-name="Layer 2"><g id="Layer_1-2" data-name="Layer 1"><g id="Layer_2-2" data-name="Layer 2"><g id="Layer_1-2-2" data-name="Layer 1-2"><path d="M48.06656,11.03133c.45157-1.23634.88551-2.43476,1.32948-3.62948a3.58592,3.58592,0,0,1,.28342-.54579.61576.61576,0,0,1,.5767-.31489q1.22067.00637,2.44136.0002a.5727.5727,0,0,1,.572.31517c.2792.58525.56492,1.16872.81173,1.76781.75174,1.82477,1.48692,3.65635,2.2274,5.48574.48768,1.20483.97659,2.4092,1.45588,3.61736a1.52009,1.52009,0,0,1,.08986.4869.41505.41505,0,0,1-.427.44562c-.81375.00541-1.62764.00844-2.44131-.0013a.66121.66121,0,0,1-.60715-.46822q-.418-.99823-.8212-2.0027-1.02738-2.54627-2.05137-5.09389c-.005-.01242-.0254-.01865-.05487-.039-.31465.85108-.62916,1.69694-.94,2.54413-.24814.67624-.48416,1.357-.74053,2.0301a.87781.87781,0,0,1-.97194.67331c-.50577-.03046-1.01484-.0062-1.52245-.00625a.83349.83349,0,0,1-.92771-.65407q-.55308-1.50483-1.1085-3.00882c-.1881-.51146-.37386-1.02379-.58207-1.59432-.14018.33392-.26311.61625-.3779.90184q-1.21909,3.03315-2.4364,6.067a.83968.83968,0,0,1-.9773.65428c-.66875,0-1.3382-.01847-2.006.00632-.46606.0173-.70828-.2784-.54894-.7507.172-.50988.38716-1.00542.58822-1.50532q1.79184-4.45512,3.59-8.90771a3.72114,3.72114,0,0,1,.3739-.66141.66847.66847,0,0,1,.59172-.30228c.76541.00484,1.53156.021,2.29605-.00589a.79292.79292,0,0,1,.82831.52029c.26668.634.49811,1.283.73807,1.92806C47.5664,9.65122,47.80751,10.32168,48.06656,11.03133Z"/><path d="M157.20044,11.035c.45441-1.2449.8879-2.44359,1.332-3.63834a2.96479,2.96479,0,0,1,.296-.56607.60883.60883,0,0,1,.544-.28957c.82987.00438,1.65977.00244,2.48968.00121a.54721.54721,0,0,1,.53436.29758c.28429.59153.57146,1.18311.82053,1.78981.7856,1.9136,1.55365,3.83439,2.32976,5.75189.452,1.11678.91,2.23118,1.35545,3.35054a1.50215,1.50215,0,0,1,.08733.48757.41547.41547,0,0,1-.43236.44052c-.81377.005-1.62767.00918-2.4413-.002a.66055.66055,0,0,1-.60356-.47269c-.27883-.67391-.55144-1.35041-.82465-2.02663q-1.01962-2.52384-2.03822-5.0481a.51739.51739,0,0,0-.055-.07766c-.45141,1.2232-.89382,2.42036-1.33477,3.61806-.11764.31947-.2286.6414-.34646.96079a.87046.87046,0,0,1-.984.68426h-1.52282a.83472.83472,0,0,1-.91445-.61239c-.35977-.97265-.71313-1.94766-1.0691-2.92171l-.63062-1.72555c-.17332.419-.328.784-.47581,1.15166q-1.17087,2.91179-2.34011,5.82421c-.21573.53482-.40071.64972-.9798.64972-.66874,0-1.338-.016-2.00608.00538a.50614.50614,0,0,1-.55085-.733c.19561-.5934.4493-1.16791.683-1.74856q1.74832-4.3446,3.50388-8.68627a1.49934,1.49934,0,0,1,.55163-.81633.90225.90225,0,0,1,.41811-.13444c.75716-.013,1.51543.01408,2.27177-.01389a.81181.81181,0,0,1,.85833.54727c.25607.62154.48979,1.25245.724,1.88273C156.70093,9.64015,156.94146,10.31912,157.20044,11.035Z"/><path d="M80.92357,9.23083c0-.722-.0047-1.41146.004-2.10072a.70284.70284,0,0,1,.09531-.4004.528.528,0,0,1,.36149-.17893c.77329-.01594,1.54707-.01,2.32067-.007a.4853.4853,0,0,1,.50584.51354q.00168,5.56445.0002,11.12888a.43452.43452,0,0,1-.47362.47532q-1.18461.00261-2.36921.00017c-.31292-.0005-.44436-.13575-.44446-.4552-.00054-1.75422-.00369-3.50847.00436-5.26265a.34773.34773,0,0,0-.2556-.38156c-1.33952-.58631-2.66982-1.1936-4.00337-1.79353-.41939-.18867-.8396-.37556-1.30635-.58424v.3063q0,3.8263-.00006,7.65261c0,.37512-.14323.5183-.52009.51855-.74139.00051-1.48333-.01666-2.22391.00773a.5027.5027,0,0,1-.54757-.563c.00958-1.15867.00356-2.31747.00356-3.47622q0-3.72975.0001-7.45949c0-.4441.1817-.62814.61834-.62819.67691-.00007,1.354-.00691,2.03067.005a1.26311,1.26311,0,0,1,.47963.10941c1.45114.64839,2.89814,1.306,4.34659,1.96044q.5646.25509,1.13065.50689C80.75119,9.15605,80.82212,9.18645,80.92357,9.23083Z"/><path d="M140.72527,6.34958a6.15259,6.15259,0,0,1,6.20421,6.692,6.21751,6.21751,0,0,1-12.422-.55277,6.118,6.118,0,0,1,6.09592-6.14Q140.66433,6.34859,140.72527,6.34958Zm.0208,3.04194a2.6959,2.6959,0,0,0-2.41506,1.2936,3.75918,3.75918,0,0,0-.41372,2.89634,2.92725,2.92725,0,0,0,1.09008,1.74837,2.80966,2.80966,0,0,0,2.1375.53667,2.64933,2.64933,0,0,0,1.86415-1.08413,3.622,3.622,0,0,0,.57666-3.04026A2.80457,2.80457,0,0,0,140.74607,9.39152Z"/><path d="M112.49877,12.81452h4.49692v-.28229q0-2.7033.00006-5.40659c.00006-.42135.15954-.58275.575-.58285q1.07564-.00025,2.15126.00014c.39952.00036.56176.16519.56177.56827q.00006,5.51519,0,11.03039c0,.39156-.12608.52007-.5127.52035q-1.13605.00082-2.27211,0c-.35946-.00022-.50273-.14565-.503-.51162q-.001-1.13442-.00019-2.26883v-.24832h-4.49692v.24917q0,1.15856-.00035,2.31711a.41366.41366,0,0,1-.455.4616q-1.20857.00438-2.41714.00013a.37042.37042,0,0,1-.41481-.4114q-.00177-5.6238,0-11.24762a.43479.43479,0,0,1,.468-.4586Q110.83981,6.54,112,6.54385a.46151.46151,0,0,1,.49854.51255q.00087,2.7395.00029,5.479Z"/><path d="M129.11972,16.3354h-2.30816v1.07486c0,.24943.0031.49891-.0008.74828a.45854.45854,0,0,1-.50591.50324q-1.14825.00147-2.29648-.0001a.43392.43392,0,0,1-.48452-.48854q-.00087-5.58807-.00013-11.17616c0-.31856.13189-.45361.44613-.4538,1.61963-.00093,3.24-.0294,4.85863.01033a4.50333,4.50333,0,0,1,2.65587,1.01569,4.69325,4.69325,0,0,1,1.78284,2.7838,4.716,4.716,0,0,1-1.02062,4.20026c-.23505.282-.34907.482-.14291.864.44456.82386.81569,1.68772,1.20526,2.5405.19418.42512.00224.70287-.46758.70395-.693.00159-1.386-.00652-2.07887.00312a.81694.81694,0,0,1-.81744-.50869C129.66507,17.551,129.394,16.94176,129.11972,16.3354Zm-2.30345-2.599c.5271,0,1.0356.03449,1.5373-.00911a1.97763,1.97763,0,0,0,1.44184-.75541,2.39106,2.39106,0,0,0,.49091-1.996,2.13872,2.13872,0,0,0-1.52208-1.81442,5.24272,5.24272,0,0,0-1.13754-.10515c-.269-.01475-.53944-.00285-.81044-.00285Z"/><path d="M20.59539,16.73076c-.16959.4803-.33552.94987-.5012,1.41952a.638.638,0,0,1-.708.5118c-.685.00008-1.37157-.029-2.05439.00929-.53805.03019-.743-.35441-.55647-.81456.25914-.63912.52829-1.27418.79-1.91228q1.63333-3.98282,3.26515-7.96625c.13833-.33728.277-.67462.42631-1.00712a.69063.69063,0,0,1,.68367-.42881c.51574.00147,1.03159.00674,1.54719-.0019a.64691.64691,0,0,1,.67091.4336q.79612,1.92246,1.59611,3.84332,1.38666,3.33938,2.77256,6.67905c.06684.16107.138.32085.19455.48557a.47187.47187,0,0,1-.463.67645c-.79762.01168-1.59569.01287-2.39323-.00131-.30551-.00543-.452-.243-.54638-.49881q-.22887-.62055-.43346-1.24992c-.03971-.12216-.08577-.18108-.226-.18057C23.31413,16.73274,21.96854,16.73076,20.59539,16.73076Zm2.15349-6.25428-.05567.00673-1.26927,3.5817h2.58158Z"/><path d="M68.40851,18.6621c-.33845,0-.67761-.01364-1.0152.00339a.6469.6469,0,0,1-.7263-.4926c-.16336-.41778-.3033-.84518-.43879-1.273a.20523.20523,0,0,0-.23393-.1718l-.00032,0q-1.94609.00657-3.8922-.00155c-.1445-.00079-.19057.06129-.22983.17715-.14208.41941-.28951.837-.43649,1.25477a.64269.64269,0,0,1-.715.5036q-1.06371.00008-2.12743-.00017c-.43769-.00041-.64995-.27655-.4955-.6953.222-.60183.47437-1.19255.71747-1.7865q1.67559-4.09391,3.35367-8.18682c.14127-.34465.27938-.69094.43336-1.03a.68251.68251,0,0,1,.66527-.42035c.51574-.00088,1.03161.007,1.54718-.00281a.65815.65815,0,0,1,.68936.44168c.494,1.19407.996,2.38486,1.49157,3.5783q1.081,2.60334,2.15757,5.20851c.29146.70319.58917,1.40382.87629,2.10877.19614.48158-.013.78313-.53291.78448C69.13378,18.66286,68.77115,18.6621,68.40851,18.6621ZM64.092,10.4775l-.0557.00476-1.27,3.58323h2.58224Z"/><path d="M171.07445,16.73074c-.16894.47578-.33586.94417-.50155,1.413a.642.642,0,0,1-.72649.51835q-1.06371.00006-2.12743-.00023c-.41891-.00053-.64506-.28654-.49339-.682.33487-.873.69608-1.736,1.05032-2.60159q1.51327-3.69763,3.03011-7.39384c.13835-.33727.27939-.67356.42654-1.00708a.68736.68736,0,0,1,.679-.43463c.52379,0,1.04767.005,1.57137-.00187a.63648.63648,0,0,1,.65128.427q.79838,1.92151,1.59657,3.84311,1.44676,3.48185,2.89334,6.96378c.02737.0659.04971.134.07252.20164a.471.471,0,0,1-.45347.68157q-1.19637.01993-2.39324-.00023c-.306-.00483-.45643-.23722-.55154-.493-.15369-.41331-.30045-.82965-.433-1.25009-.04346-.13789-.09837-.18778-.24548-.18717C173.78231,16.733,172.44466,16.73074,171.07445,16.73074Zm2.15444-6.24844-.05556-.00446c-.42134,1.18821-.84267,2.37641-1.27165,3.58614h2.58117C174.06275,12.86414,173.64579,11.67322,173.22889,10.4823Z"/><path d="M197.11121,12.75745a6.56294,6.56294,0,0,1,1.45343-4.11469A6.25236,6.25236,0,0,1,202.435,6.36071a6.39592,6.39592,0,0,1,5.0135,1.35629.48153.48153,0,0,1,.08057.668q-.47047.80354-.93784,1.60888a.53481.53481,0,0,1-.8784.18108,3.51333,3.51333,0,0,0-2.23033-.72458,2.90711,2.90711,0,0,0-2.88457,2.12016,3.263,3.263,0,0,0,.83115,3.49289,2.73277,2.73277,0,0,0,1.68771.75354,3.61438,3.61438,0,0,0,2.64487-.73154.52565.52565,0,0,1,.796.17646q.49.83378.98116,1.66682a.57967.57967,0,0,1-.20955.79254q-.02335.01357-.04787.02494a6.86774,6.86774,0,0,1-2.95064,1.20942,6.13832,6.13832,0,0,1-4.75168-1.28946,6.30446,6.30446,0,0,1-2.35505-3.87253A10.22811,10.22811,0,0,1,197.11121,12.75745Z"/><path d="M185.70676,9.39152v8.68715c0,.42312-.15774.58308-.57593.58332q-1.08789.00063-2.17579,0c-.39653-.00016-.58264-.1829-.58376-.58682-.0027-.98171-.0009-1.96343-.0009-2.94514V9.39152h-1.007q-1.02749,0-2.0549-.00022c-.291-.00029-.45986-.14068-.46436-.42816q-.01561-1.00159-.00015-2.00357c.00386-.27158.19606-.4166.50706-.41665q2.9494-.00052,5.89879-.00018,1.76482,0,3.52962.00024c.33945.00018.50381.15922.50494.49257q.003.89319,0,1.7864c-.0014.39875-.174.56952-.56759.56954C187.726,9.39156,186.73522,9.39152,185.70676,9.39152Z"/><path d="M33.47488,10.86305c.3233-.58044.62845-1.12855.93382-1.67653q.61557-1.10459,1.23169-2.20886a.80609.80609,0,0,1,.76681-.43693c.838.00621,1.67614.00154,2.51421.00287a.85629.85629,0,0,1,.214.02061c.23882.06267.305.19013.16921.39484-.40891.61647-.8037,1.24224-1.207,1.86245q-1.43868,2.2126-2.87606,4.42605a.65091.65091,0,0,0-.08559.33539c-.00547,1.52887-.00355,3.05777-.00377,4.58666,0,.36013-.1305.49186-.49028.49224q-1.16042.00124-2.32082,0c-.344-.00041-.47665-.13442-.47673-.47926-.00033-1.52085.00156-3.0417-.00387-4.56252a.60138.60138,0,0,0-.08659-.30974Q29.772,10.25511,27.78145,7.20547a1.8785,1.8785,0,0,1-.19617-.37443.16448.16448,0,0,1,.14482-.24222,2.19617,2.19617,0,0,1,.30518-.044c.83806-.0036,1.67635.00851,2.51411-.00754a.69365.69365,0,0,1,.67556.36077q.66971,1.157,1.33156,2.31855C32.85915,9.749,33.15347,10.286,33.47488,10.86305Z"/><path class="cls-1" d="M96.96741,17.89738c-.45418-.32279-.92949-.62-1.35862-.97312a9.26571,9.26571,0,0,1-2.9069-4.13379,9.49546,9.49546,0,0,1-.52327-3.00328,9.17212,9.17212,0,0,1,1.07534-4.586A9.35573,9.35573,0,0,1,98.59748.6368c.13416-.047.19753-.02755.22526.10779a12.43949,12.43949,0,0,1,.27175,1.37657,4.80474,4.80474,0,0,1-.18966,1.97273.54157.54157,0,0,1-.206.27,5.76958,5.76958,0,0,0-2.739,4.14432,6.28022,6.28022,0,0,0,1.12525,4.90558.08542.08542,0,0,0,.014.01953c.43385.32455.3564.70956.20812,1.16409a7.00666,7.00666,0,0,0-.29581,3.07825c.007.0551.00864.11086.01279.16631Z"/><path class="cls-2" d="M6.58024.461a4.80008,4.80008,0,0,1,.31714,2.49528c-.02688.17245-.03669.34758-.06455.51983a1.5038,1.5038,0,0,1-.68447,1.05878A5.55005,5.55005,0,0,0,3.84655,8.322a6.25471,6.25471,0,0,0,.96152,4.71669c.13813.20387.30536.38792.44683.58974a.31293.31293,0,0,1,.054.22171c-.15741.67041-.3817,1.33078-.47332,2.00929a13.61975,13.61975,0,0,0-.01692,1.81627A9.2522,9.2522,0,0,1,.04452,8.6503,9.39513,9.39513,0,0,1,6.58024.461Z"/><path d="M194.65227,12.63857v5.40531c0,.4383-.18312.618-.63045.61815q-.99078.0004-1.98156.00006c-.44583,0-.56865-.09772-.649-.52669a1.43748,1.43748,0,0,1-.01771-.263q-.00123-5.26053.003-10.521a1.354,1.354,0,0,1,.09092-.51027.48728.48728,0,0,1,.4802-.29886c.69275.00145,1.38548-.0017,2.07824.00143a.61492.61492,0,0,1,.62658.603q.00036.01915-.00046.0383Q194.65295,9.91178,194.65227,12.63857Z"/><path class="cls-3" d="M7.22033,15.1092c.602.11243,1.14873.24653,1.70361.312a5.8148,5.8148,0,0,0,4.05184-1.08173c.43788-.298.68135-.242.95934.21555.39254.646.778,1.29636,1.16173,1.94764a.54277.54277,0,0,1-.19075.7435l-.01084.00625a9.38745,9.38745,0,0,1-3.86069,1.55133,10.22733,10.22733,0,0,1-3.37308-.04133.42268.42268,0,0,1-.373-.2997,5.39625,5.39625,0,0,1-.09094-3.31447C7.2072,15.112,7.23774,15.08137,7.22033,15.1092Z"/><path class="cls-4" d="M99.39361,15.22554c.34653.08953.65683.18308.9729.24914a5.9103,5.9103,0,0,0,4.72406-.982c.44348-.30412.70661-.24858.97966.2138.36019.61.71871,1.221,1.08647,1.82641a.61158.61158,0,0,1-.21466.91612,9.292,9.292,0,0,1-3.9762,1.53164,9.54992,9.54992,0,0,1-3.18761-.08473.42288.42288,0,0,1-.27168-.22125,4.74763,4.74763,0,0,1-.27354-2.64881C99.28805,15.7632,99.33873,15.49967,99.39361,15.22554Z"/><path class="cls-5" d="M9.06243,3.39513A7.59779,7.59779,0,0,0,8.74635,0c.71454.0273,1.39125.0031,2.05371.08875a9.10814,9.10814,0,0,1,3.96866,1.52037.607.607,0,0,1,.21247.93131c-.40124.64044-.76383,1.30514-1.16884,1.94307-.21939.34554-.49115.37436-.83834.13036a5.71633,5.71633,0,0,0-2.15772-.985C10.25588,3.51645,9.68129,3.47484,9.06243,3.39513Z"/><path class="cls-6" d="M101.26742,3.5974a7.69358,7.69358,0,0,0-.30477-3.42163,16.51562,16.51562,0,0,1,1.66562.01061,7.40668,7.40668,0,0,1,2.3327.56747c.69968.31988,1.37384.6974,2.04824,1.06941a.5579.5579,0,0,1,.16223.74882q-.58929,1.02541-1.19944,2.03878a.51931.51931,0,0,1-.836.15515,6.14883,6.14883,0,0,0-2.15768-.986c-.4265-.088-.86344-.12719-1.29667-.18026A3.67642,3.67642,0,0,0,101.26742,3.5974Z"/></g></g></g></g></svg>