<svg xmlns="http://www.w3.org/2000/svg" viewBox="0 0 207.61676 19.07454"><defs><style>.cls-1{fill:#fff;}.cls-2{fill:#4ac9e9;}.cls-3{fill:#ffe144;}.cls-4{fill:#f44;}.cls-5{fill:#785bd6;}.cls-6{fill:#ffa543;}.cls-7{fill:#448fff;}</style></defs><g id="Layer_2" data-name="Layer 2"><g id="Layer_1-2" data-name="Layer 1"><path class="cls-1" d="M48.05768,11.03133c.45157-1.23634.88551-2.43476,1.32948-3.62948a3.58511,3.58511,0,0,1,.28342-.54579.61575.61575,0,0,1,.5767-.31489q1.22067.00637,2.44136.0002a.57271.57271,0,0,1,.572.31517c.2792.58525.56492,1.16872.81173,1.76781.75174,1.82477,1.48692,3.65635,2.2274,5.48574.48768,1.20483.97659,2.4092,1.45588,3.61736a1.52,1.52,0,0,1,.08986.4869.41509.41509,0,0,1-.427.44562c-.81375.00541-1.62764.00844-2.44131-.0013a.66123.66123,0,0,1-.60715-.46822q-.41805-.99823-.8212-2.0027-1.02738-2.54627-2.05137-5.09389c-.005-.01242-.0254-.01865-.05487-.039-.31465.85108-.62916,1.69694-.94,2.54413-.24814.67624-.48416,1.357-.74053,2.0301a.87781.87781,0,0,1-.97194.67331c-.50577-.03046-1.01484-.0062-1.52245-.00625a.83348.83348,0,0,1-.92771-.65407q-.55309-1.50483-1.1085-3.00882c-.1881-.51146-.37386-1.02379-.58207-1.59432-.14018.33392-.26311.61625-.3779.90184q-1.21911,3.03315-2.4364,6.067a.83968.83968,0,0,1-.9773.65428c-.66875,0-1.3382-.01847-2.006.00632-.46606.0173-.70828-.2784-.54894-.7507.172-.50988.38716-1.00542.58822-1.50532q1.79184-4.45512,3.59-8.90771a3.72053,3.72053,0,0,1,.3739-.66141.66846.66846,0,0,1,.59172-.30228c.76541.00484,1.53156.021,2.29605-.00589a.79291.79291,0,0,1,.8283.52029c.26668.634.49811,1.283.73808,1.92806C47.55751,9.65122,47.79863,10.32168,48.05768,11.03133Z"/><path class="cls-1" d="M157.19156,11.035c.45441-1.2449.88789-2.44359,1.332-3.63834a2.96514,2.96514,0,0,1,.29594-.56607.60881.60881,0,0,1,.544-.28957c.82988.00438,1.65978.00244,2.48969.00121a.54721.54721,0,0,1,.53436.29758c.28428.59153.57146,1.18311.82053,1.78981.7856,1.9136,1.55365,3.83439,2.32975,5.75189.452,1.11678.91,2.23118,1.35545,3.35054a1.50218,1.50218,0,0,1,.08732.48757.41541.41541,0,0,1-.43236.44052c-.81376.005-1.62767.00918-2.4413-.002a.66055.66055,0,0,1-.60356-.47269c-.27883-.67391-.55144-1.35041-.82465-2.02663q-1.01964-2.52384-2.03822-5.0481a.51726.51726,0,0,0-.055-.07766c-.4514,1.2232-.89381,2.42036-1.33477,3.61806-.11764.31947-.2286.6414-.34647.96079a.87045.87045,0,0,1-.984.68426q-.76141,0-1.52283,0a.83471.83471,0,0,1-.91445-.61239c-.35977-.97265-.71313-1.94766-1.06911-2.92171l-.63061-1.72555c-.17332.419-.328.784-.47582,1.15166q-1.17086,2.91179-2.34011,5.82421c-.21573.53482-.40071.64972-.9798.64972-.66875,0-1.338-.016-2.00609.00538a.50614.50614,0,0,1-.55084-.733c.1956-.5934.44929-1.16791.683-1.74856q1.74831-4.3446,3.50387-8.68627a1.49929,1.49929,0,0,1,.55163-.81633.90232.90232,0,0,1,.41811-.13444c.75716-.013,1.51542.01408,2.27177-.01389a.81181.81181,0,0,1,.85832.54727c.25607.62154.48979,1.25245.724,1.88273C156.69205,9.64015,156.93257,10.31912,157.19156,11.035Z"/><path class="cls-1" d="M80.91469,9.23083c0-.722-.00471-1.41146.004-2.10072a.70288.70288,0,0,1,.09531-.4004.528.528,0,0,1,.36149-.17893c.77329-.01594,1.54707-.01,2.32068-.007a.48532.48532,0,0,1,.50584.51354q.00168,5.56445.0002,11.12888a.43452.43452,0,0,1-.47362.47532q-1.18461.00261-2.36921.00017c-.31292-.0005-.44436-.13575-.44446-.4552-.00054-1.75422-.00369-3.50847.00436-5.26265a.34773.34773,0,0,0-.2556-.38156c-1.33952-.58631-2.66982-1.1936-4.00337-1.79353-.41939-.18867-.8396-.37556-1.30635-.58424v.3063q0,3.8263-.00006,7.65261c0,.37512-.14323.5183-.52009.51855-.74139.00051-1.48333-.01666-2.22391.00773a.50271.50271,0,0,1-.54757-.563c.00958-1.15867.00356-2.31747.00356-3.47622q0-3.72975.00009-7.45949c0-.4441.1817-.62814.61834-.62819.67692-.00007,1.354-.00691,2.03067.005a1.26314,1.26314,0,0,1,.47964.10941c1.45114.64839,2.89814,1.306,4.34659,1.96044q.56459.25509,1.13065.50689C80.74231,9.15605,80.81323,9.18645,80.91469,9.23083Z"/><path class="cls-1" d="M140.71639,6.34958a6.15257,6.15257,0,0,1,6.20421,6.692,6.21751,6.21751,0,0,1-12.422-.55277A6.118,6.118,0,0,1,140.71639,6.34958Zm.0208,3.04194a2.69589,2.69589,0,0,0-2.41505,1.2936,3.75923,3.75923,0,0,0-.41372,2.89634,2.92722,2.92722,0,0,0,1.09009,1.74837,2.80966,2.80966,0,0,0,2.13749.53667,2.64932,2.64932,0,0,0,1.86415-1.08413,3.622,3.622,0,0,0,.57666-3.04026A2.80457,2.80457,0,0,0,140.73719,9.39152Z"/><path class="cls-1" d="M112.48988,12.81452h4.49692v-.28229q0-2.7033.00007-5.40659c.00005-.42135.15954-.58275.575-.58285q1.07562-.00025,2.15126.00014c.39952.00036.56176.16519.56177.56827q.00006,5.51519,0,11.03039c0,.39156-.12608.52007-.5127.52035q-1.13606.00082-2.27211,0c-.35946-.00022-.50273-.14565-.503-.51162q-.001-1.13442-.00019-2.26883v-.24832h-4.49692v.24917q0,1.15856-.00035,2.31711a.41367.41367,0,0,1-.455.4616q-1.20855.00438-2.41714.00013a.37044.37044,0,0,1-.41481-.4114q-.00177-5.6238,0-11.24762a.43479.43479,0,0,1,.468-.4586q1.16024-.00356,2.32045.00029a.46153.46153,0,0,1,.49854.51255q.00086,2.73949.00028,5.479Z"/><path class="cls-1" d="M129.11084,16.3354h-2.30817c0,.37339,0,.72412,0,1.07486,0,.24943.0031.49891-.00079.74828a.45855.45855,0,0,1-.50591.50324q-1.14825.00147-2.29648-.0001a.43394.43394,0,0,1-.48453-.48854q-.00087-5.58807-.00012-11.17616c0-.31856.13188-.45361.44613-.4538,1.61963-.00093,3.24-.0294,4.85862.01033a4.50334,4.50334,0,0,1,2.65587,1.01569A4.69322,4.69322,0,0,1,133.2583,10.353a4.716,4.716,0,0,1-1.02062,4.20026c-.23505.282-.34907.482-.14292.864.44457.82386.81569,1.68772,1.20526,2.5405.19419.42512.00225.70287-.46757.70395-.693.00159-1.386-.00652-2.07888.00312a.81694.81694,0,0,1-.81744-.50869C129.65619,17.551,129.38511,16.94176,129.11084,16.3354Zm-2.30345-2.599c.52709,0,1.0356.03449,1.5373-.00911a1.97766,1.97766,0,0,0,1.44185-.75541,2.3911,2.3911,0,0,0,.49091-1.996,2.13873,2.13873,0,0,0-1.52208-1.81442,5.24251,5.24251,0,0,0-1.13754-.10515c-.269-.01475-.53944-.00285-.81044-.00285Z"/><path class="cls-1" d="M20.58651,16.73076c-.16959.4803-.33552.94987-.5012,1.41952a.638.638,0,0,1-.708.5118c-.685.00008-1.37157-.029-2.05439.00929-.53806.03019-.74305-.35441-.55647-.81456.25914-.63912.52829-1.27418.79-1.91228q1.63332-3.98282,3.26515-7.96625c.13832-.33728.277-.67462.42631-1.00712a.69063.69063,0,0,1,.68367-.42881c.51574.00147,1.03159.00674,1.54719-.0019a.64691.64691,0,0,1,.67091.4336q.79612,1.92246,1.59611,3.84332,1.38665,3.33938,2.77256,6.67905c.06684.16107.138.32085.19455.48557a.47188.47188,0,0,1-.463.67645c-.79762.01168-1.59569.01287-2.39323-.00131-.30551-.00543-.452-.243-.54638-.49881q-.22887-.62056-.43346-1.24992c-.03971-.12216-.08577-.18108-.226-.18057C23.30524,16.73274,21.95966,16.73076,20.58651,16.73076ZM22.74,10.47648l-.05567.00673-1.26927,3.5817h2.58158Z"/><path class="cls-1" d="M68.39963,18.6621c-.33845,0-.67761-.01364-1.0152.00339a.64689.64689,0,0,1-.7263-.4926c-.16336-.41778-.3033-.84518-.43879-1.273a.20523.20523,0,0,0-.23425-.17175q-1.94608.00657-3.8922-.00155c-.1445-.00079-.19057.06129-.22983.17715-.14208.41941-.28951.837-.43649,1.25477a.64268.64268,0,0,1-.71495.5036q-1.06371.00008-2.12743-.00017c-.43769-.00041-.64995-.27655-.4955-.6953.222-.60183.47437-1.19255.71747-1.7865q1.6756-4.0939,3.35367-8.18682c.14127-.34465.27939-.69094.43336-1.03a.68251.68251,0,0,1,.66527-.42035c.51574-.00088,1.03162.007,1.54718-.00281a.65815.65815,0,0,1,.68936.44168c.494,1.19407.996,2.38486,1.49157,3.5783q1.081,2.60334,2.15757,5.20851c.29146.70319.58917,1.40382.87629,2.10877.19614.48158-.013.78313-.53291.78448C69.12489,18.66286,68.76226,18.6621,68.39963,18.6621Zm-4.31652-8.1846-.0557.00476-1.27,3.58323h2.58224Z"/><path class="cls-1" d="M171.06557,16.73074c-.16895.47578-.33586.94417-.50155,1.413a.642.642,0,0,1-.72648.51835q-1.06371.00006-2.12743-.00023c-.41892-.00053-.64507-.28654-.4934-.682.33487-.873.69608-1.736,1.05032-2.60159q1.51327-3.69763,3.03011-7.39384c.13835-.33727.27939-.67356.42654-1.00708a.68735.68735,0,0,1,.679-.43463c.52379,0,1.04767.005,1.57137-.00187a.63648.63648,0,0,1,.65127.42695q.79839,1.92151,1.59657,3.84311,1.44677,3.48185,2.89334,6.96378c.02738.0659.04972.134.07252.20164a.471.471,0,0,1-.45347.68157q-1.19636.01994-2.39323-.00023c-.306-.00483-.45643-.23722-.55154-.493-.15368-.41331-.30044-.82965-.433-1.25009-.04346-.13789-.09837-.18778-.24549-.18717C173.77342,16.733,172.43578,16.73074,171.06557,16.73074ZM173.22,10.4823l-.05556-.00446c-.42134,1.18821-.84267,2.37641-1.27165,3.58614h2.58118C174.05386,12.86414,173.6369,11.67322,173.22,10.4823Z"/><path class="cls-1" d="M197.10232,12.75745a6.563,6.563,0,0,1,1.45343-4.11469,6.25239,6.25239,0,0,1,3.87031-2.28205A6.39594,6.39594,0,0,1,207.43958,7.717a.48152.48152,0,0,1,.08056.668q-.47046.80353-.93783,1.60888a.53481.53481,0,0,1-.8784.18108,3.51334,3.51334,0,0,0-2.23033-.72458,2.90711,2.90711,0,0,0-2.88457,2.12016,3.263,3.263,0,0,0,.83115,3.49289,2.73278,2.73278,0,0,0,1.68772.75354,3.61439,3.61439,0,0,0,2.64486-.73154.52565.52565,0,0,1,.796.17646q.49.83377.98115,1.66682a.57967.57967,0,0,1-.25742.81748,6.86778,6.86778,0,0,1-2.95064,1.20942,6.13833,6.13833,0,0,1-4.75168-1.28946,6.3045,6.3045,0,0,1-2.35506-3.87253A10.23168,10.23168,0,0,1,197.10232,12.75745Z"/><path class="cls-1" d="M185.69788,9.39152v.31039q0,4.18838,0,8.37676c0,.42312-.15774.58308-.57593.58332q-1.08789.00062-2.17579,0c-.39653-.00016-.58264-.1829-.58376-.58682-.0027-.98171-.0009-1.96343-.0009-2.94514V9.39152h-1.007q-1.02745,0-2.0549-.00022c-.29095-.00029-.45986-.14068-.46435-.42816q-.01562-1.00159-.00016-2.00357c.00386-.27158.19606-.4166.50707-.41665q2.94939-.00052,5.89879-.00018,1.76481,0,3.52962.00024c.33944.00018.50382.15922.50494.49257q.003.89319,0,1.7864c-.0014.39875-.174.56952-.56759.56954C187.71713,9.39156,186.72634,9.39152,185.69788,9.39152Z"/><path class="cls-1" d="M33.466,10.86305c.32329-.58044.62844-1.12855.93382-1.67653q.61557-1.10459,1.23168-2.20886a.8061.8061,0,0,1,.76682-.43693c.838.00621,1.67614.00154,2.51421.00287a.85648.85648,0,0,1,.214.02061c.23882.06267.305.19013.1692.39484-.4089.61647-.8037,1.24224-1.207,1.86245q-1.43869,2.2126-2.87606,4.42605a.65087.65087,0,0,0-.08559.33539c-.00547,1.52887-.00355,3.05777-.00377,4.58666-.00005.36013-.1305.49186-.49028.49224q-1.16042.00124-2.32082,0c-.344-.00041-.47666-.13442-.47673-.47926-.00034-1.52085.00155-3.0417-.00388-4.56252a.60128.60128,0,0,0-.08659-.30974q-1.98192-3.05522-3.97244-6.10485a1.87807,1.87807,0,0,1-.19617-.37443.16447.16447,0,0,1,.14482-.24222,2.19548,2.19548,0,0,1,.30518-.044c.83806-.0036,1.67635.00851,2.51411-.00754a.69366.69366,0,0,1,.67556.36077q.6697,1.157,1.33156,2.31855C32.85026,9.749,33.14458,10.286,33.466,10.86305Z"/><path class="cls-2" d="M96.95853,17.89738c-.45418-.32279-.92949-.62-1.35862-.97312a9.26577,9.26577,0,0,1-2.9069-4.13379,9.4955,9.4955,0,0,1-.52328-3.00328,9.1721,9.1721,0,0,1,1.07535-4.586A9.35573,9.35573,0,0,1,98.58859.6368c.13416-.047.19753-.02755.22526.10779a12.438,12.438,0,0,1,.27176,1.37657,4.80482,4.80482,0,0,1-.18967,1.97273.54158.54158,0,0,1-.206.27,5.76959,5.76959,0,0,0-2.739,4.14432,6.28023,6.28023,0,0,0,1.12525,4.90558.08564.08564,0,0,0,.014.01953c.43385.32455.3564.70956.20812,1.16409a7.00652,7.00652,0,0,0-.29581,3.07825c.007.0551.00864.11086.01279.16631Z"/><path class="cls-3" d="M6.57136.461a4.8,4.8,0,0,1,.31713,2.49528c-.02688.17245-.03668.34758-.06455.51983a1.5038,1.5038,0,0,1-.68446,1.05878A5.55,5.55,0,0,0,3.83767,8.322a6.25464,6.25464,0,0,0,.96152,4.71669c.13812.20387.30536.38792.44683.58974a.313.313,0,0,1,.054.22171c-.15741.67041-.3817,1.33078-.47332,2.00929a13.6181,13.6181,0,0,0-.01692,1.81627A9.25218,9.25218,0,0,1,.03564,8.6503,9.3951,9.3951,0,0,1,6.57136.461Z"/><path class="cls-1" d="M194.64338,12.63857q0,2.70266,0,5.40531c0,.4383-.18312.618-.63044.61815q-.99079.0004-1.98157.00006c-.44583,0-.56865-.09772-.649-.52669a1.43749,1.43749,0,0,1-.01772-.263q-.00123-5.26053.003-10.521a1.354,1.354,0,0,1,.09093-.51027.48726.48726,0,0,1,.48019-.29886c.69275.00145,1.38549-.0017,2.07824.00143a.61491.61491,0,0,1,.62612.64132Q194.64408,9.91178,194.64338,12.63857Z"/><path class="cls-4" d="M7.21145,15.1092c.602.11243,1.14873.24653,1.7036.312a5.81483,5.81483,0,0,0,4.05185-1.08173c.43788-.298.68135-.242.95934.21555.39253.646.778,1.29636,1.16172,1.94764a.54276.54276,0,0,1-.20159.74975,9.38748,9.38748,0,0,1-3.86068,1.55133,10.22733,10.22733,0,0,1-3.37308-.04133.42268.42268,0,0,1-.373-.2997,5.39622,5.39622,0,0,1-.09094-3.31447C7.19832,15.112,7.22886,15.08137,7.21145,15.1092Z"/><path class="cls-5" d="M99.38473,15.22554c.34653.08953.65683.18308.9729.24914a5.91025,5.91025,0,0,0,4.72405-.982c.44348-.30412.70662-.24858.97966.2138.36019.61.71871,1.221,1.08648,1.82641a.61155.61155,0,0,1-.21467.91612,9.29192,9.29192,0,0,1-3.9762,1.53164,9.54994,9.54994,0,0,1-3.18761-.08473.42288.42288,0,0,1-.27168-.22125,4.74753,4.74753,0,0,1-.27354-2.64881C99.27917,15.7632,99.32985,15.49967,99.38473,15.22554Z"/><path class="cls-6" d="M9.05355,3.39513A7.598,7.598,0,0,0,8.73747,0c.71454.0273,1.39125.0031,2.05371.08875a9.10812,9.10812,0,0,1,3.96866,1.52037.607.607,0,0,1,.21247.93131c-.40125.64044-.76383,1.30514-1.16885,1.94307-.21938.34554-.49114.37436-.83833.13036a5.7164,5.7164,0,0,0-2.15772-.985C10.247,3.51645,9.67241,3.47484,9.05355,3.39513Z"/><path class="cls-7" d="M101.25854,3.5974a7.69364,7.69364,0,0,0-.30477-3.42163,16.51372,16.51372,0,0,1,1.66562.01061,7.40668,7.40668,0,0,1,2.3327.56747c.69968.31988,1.37384.6974,2.04823,1.06941a.5579.5579,0,0,1,.16223.74882q-.58928,1.02541-1.19944,2.03878a.51931.51931,0,0,1-.836.15515,6.14889,6.14889,0,0,0-2.15768-.986c-.4265-.088-.86344-.12719-1.29667-.18026A3.67593,3.67593,0,0,0,101.25854,3.5974Z"/></g></g></svg>