<svg xmlns="http://www.w3.org/2000/svg" viewBox="0 0 459.65124 168.62828"><defs><style>.cls-1{fill:#fff;}.cls-2{fill:#09bae7;}.cls-3{fill:#fcc300;}.cls-4{fill:#e81616;}.cls-5{fill:#4c18d0;}.cls-6{fill:#fa8300;}.cls-7{fill:#0665f2;}</style></defs><g id="Layer_2" data-name="Layer 2"><g id="Layer_1-2" data-name="Layer 1"><g id="Layer_2-2" data-name="Layer 2"><g id="Layer_1-2-2" data-name="Layer 1-2"><path class="cls-1" d="M272.38945,137.123q-3.13911,8.52884-6.28,17.04508a11.66518,11.66518,0,0,1-.99722,2.26417,2.89526,2.89526,0,0,1-2.62262,1.33044c-2.24731-.025-4.49505-.00739-6.74264-.00742a3.27468,3.27468,0,0,1-3.56339-2.39251c-.975-2.62326-1.89445-5.26726-2.87919-7.8868-1.26754-3.37186-2.57583-6.72839-3.87113-10.08978-.01825-.04732-.09558-.07185-.19585-.14276-1.24078,3.046-2.48457,6.07283-3.70777,9.10792-2.25444,5.5938-4.48739,11.19625-6.75432,16.785a17.23179,17.23179,0,0,1-1.26143,2.48074,2.83653,2.83653,0,0,1-2.63915,1.4589c-2.84831-.04589-5.69918-.06809-8.54643.00372-1.94357.049-2.73343-1.13953-2.14075-2.92172.668-2.00875,1.52309-3.95592,2.313-5.92336,3.67912-9.16363,7.34353-18.33323,11.05842-27.48236,1.18113-2.90881,2.48906-5.76667,3.76923-8.63433a7.36524,7.36524,0,0,1,1.01-1.66014,2.703,2.703,0,0,1,2.189-1.07424c3.07048.02259,6.144.08687,9.21074-.02228a3.17754,3.17754,0,0,1,3.35721,2.13051c.95808,2.32919,1.8011,4.70594,2.6802,7.06728,1.03954,2.79234,2.06575,5.58961,3.137,8.49107,1.37683-3.80835,2.67307-7.56046,4.09787-11.26312a50.9897,50.9897,0,0,1,2.47745-5.261,2.22514,2.22514,0,0,1,2.11258-1.14025q4.98568.0244,9.97159.00228a2.15865,2.15865,0,0,1,2.1026,1.1384c1.12979,2.3168,2.25451,4.64221,3.23562,7.02416,2.685,6.5188,5.2963,13.0679,7.93415,19.60606.495,1.22681.95752,2.467,1.4696,3.68648,1.73987,4.14335,3.51346,8.27269,5.22549,12.42744a6.45191,6.45191,0,0,1,.38184,2.086,1.62064,1.62064,0,0,1-1.544,1.69383q-.038.00177-.076.00174c-3.29209.02294-6.58469.03473-9.87647-.00491a2.53548,2.53548,0,0,1-2.31293-1.7665c-1.1138-2.63414-2.18426-5.28669-3.26089-7.93643-.83389-2.0523-1.6348-4.11808-2.479-6.1661q-2.86689-6.955-5.76572-13.89678C272.58571,137.23192,272.50722,137.20661,272.38945,137.123Z"/><path class="cls-1" d="M191.49388,43.21915c1.7242-4.70606,3.43491-9.41659,5.18459-14.1126a14.83577,14.83577,0,0,1,1.13034-2.20408,2.39156,2.39156,0,0,1,2.24268-1.238c3.29255.01729,6.5852.00993,9.87783.00437a2.16787,2.16787,0,0,1,2.14411,1.20983c1.10356,2.329,2.21954,4.6554,3.21651,7.0307,1.51255,3.60362,2.90686,7.25664,4.39112,10.87237,2.0793,5.06517,4.197,10.11455,6.29462,15.17223,1.30914,3.15655,2.63487,6.30661,3.89818,9.48144a7.064,7.064,0,0,1,.4192,2.17212,1.62,1.62,0,0,1-1.68574,1.72593c-3.26084.01789-6.52219.03167-9.78267-.00643a2.58771,2.58771,0,0,1-2.37084-1.82862c-1.10336-2.638-2.16581-5.29315-3.23814-7.944q-3.77169-9.32377-7.54715-18.646a13.82864,13.82864,0,0,0-.90018-1.579c-2.21223,6.07041-4.37738,12.07495-6.59721,18.0592-.568,1.53142-1.4231,2.81233-3.8602,2.67119-2.11412-.12244-4.24093-.02817-6.36215-.02455a3.1539,3.1539,0,0,1-3.284-2.22052c-1.231-3.38062-2.4965-6.74867-3.73915-10.1251-.99679-2.70847-1.98065-5.4217-3.04692-8.34278-.20485.49322-.336.805-.4641,1.1179q-5.37222,13.11967-10.74192,26.24041c-.86971,2.12742-1.61272,2.6351-3.95513,2.6351-2.65942,0-5.321-.06608-7.97752.02231-1.89647.0631-2.81278-1.09337-2.15318-2.9738.793-2.26084,1.697-4.48376,2.58848-6.70887,2.1181-5.2867,4.22806-10.577,6.39662-15.84307,1.831-4.44628,3.74816-8.857,5.61028-13.29059.85638-2.039,1.65227-4.10348,2.51926-6.13781a6.97534,6.97534,0,0,1,1.00309-1.66338,2.70327,2.70327,0,0,1,2.18541-1.0816c3.10253.02007,6.20789.08367,9.30686-.0233a3.09854,3.09854,0,0,1,3.23236,2.03764c1.113,2.66355,2.0756,5.39023,3.08664,8.096.70933,1.89831,1.37877,3.81169,2.10276,5.70427A18.41524,18.41524,0,0,0,191.49388,43.21915Z"/><path class="cls-1" d="M300.02852,40.10048v7.38371q0,11.96178-.0003,23.92357c-.00013,1.33751-.59061,1.93012-1.93467,1.93146q-4.65288.00467-9.30584-.00045a1.7158,1.7158,0,0,1-1.86463-1.76222c-.013-.189-.002-.37961-.002-.56948q0-21.40779.00009-42.81559c0-1.83826.68836-2.52041,2.54144-2.52041,2.65885,0,5.3183-.03207,7.976.022a5.46516,5.46516,0,0,1,2.0382.47676c2.47815,1.09416,4.913,2.286,7.38791,3.38782,4.637,2.06443,9.28952,4.094,13.93918,6.12994.44293.194.91114.33016,1.4502.52266,0-2.90258-.001-5.71151.00042-8.52044a1.76168,1.76168,0,0,1,1.97663-2.018c2.912-.00238,5.82605.06127,8.73514-.03118a2.25157,2.25157,0,0,1,2.23275,2.18618c-.042,14.5249-.027,29.05-.02838,43.575a1.73138,1.73138,0,0,1-1.95773,1.93773q-4.60542.00332-9.21091-.00045c-1.22378-.00139-1.74685-.53038-1.74713-1.76317-.00165-6.96189-.01474-13.92384.01868-20.88556.00372-.77952-.2793-1.01714-.97107-1.294-2.23068-.89261-4.40714-1.92051-6.60437-2.89665q-7.14236-3.17307-14.28574-6.34364A1.882,1.882,0,0,0,300.02852,40.10048Z"/><path class="cls-1" d="M193.34429,168.01406c-13.606.18027-25.01621-10.53319-24.75893-25.26567.22942-13.13782,10.64259-25.06418,26.66551-24.1045,11.70349.701,23.58541,10.0747,22.68759,26.53C217.27948,157.25211,207.7994,168.06879,193.34429,168.01406Zm.11749-37.49564c-.74332.08927-1.488.169-2.22975.26949a9.87439,9.87439,0,0,0-7.05872,4.39331,14.503,14.503,0,0,0-2.04667,11.73689,11.28741,11.28741,0,0,0,12.87837,9.14433,10.24972,10.24972,0,0,0,7.36125-4.23739,14.355,14.355,0,0,0,2.3141-11.7578c-1.04729-5.376-5.2809-9.645-11.21856-9.54883Z"/><path class="cls-1" d="M98.85789,155.12925H81.00138c0,3.06071-.07839,6.092.0245,9.11712.0842,2.47568-.58779,2.88611-2.88347,2.83089-2.81606-.06775-5.635-.01443-8.45269-.01694-1.28756-.00114-1.7952-.5142-1.79528-1.81231q-.00117-21.93474.0001-43.86947a1.76665,1.76665,0,0,1,2.01514-1.986q4.464-.003,8.928,0a1.8937,1.8937,0,0,1,2.16354,2.15637c.00039,7.46817.00017,14.93632.00017,22.46834h17.8565v-.9574q0-10.73.00038-21.46c.0002-1.566.6505-2.2077,2.23062-2.20789q4.369-.00051,8.738.00073c1.45507.00138,2.13817.67175,2.1382,2.08955q.00051,21.83974-.00009,43.67948c-.00005,1.34076-.53679,1.89555-1.85784,1.89769q-4.70144.00754-9.40287.00052a1.6273,1.6273,0,0,1-1.84413-1.83409c-.007-3.03858-.00229-6.07717-.00229-9.11574Z"/><path class="cls-1" d="M158.26476,152.69445c.98991,2.10339,2.02318,4.34231,3.09506,6.56257.84491,1.75011,1.73233,3.47983,2.61029,5.21384a1.666,1.666,0,0,1-1.50783,2.56769c-3.13166.06874-6.26724.07571-9.39837-.00462a2.90356,2.90356,0,0,1-2.55278-1.91184c-.92029-2.01678-1.87145-4.02093-2.72765-6.06473a1.50172,1.50172,0,0,0-1.72406-1.15381c-2.64842.12394-5.3065.04154-8.06918.04154v6.64651c0,1.8951-.56356,2.4695-2.42261,2.4695q-4.36748,0-8.735-.00072a1.719,1.719,0,0,1-1.94912-1.94751q-.00179-21.97446-.00006-43.949c.00011-1.24138.5165-1.77006,1.741-1.77061,6.45627-.00287,12.91519-.11308,19.36783.03987a17.9536,17.9536,0,0,1,10.67442,4.10179,22.96817,22.96817,0,0,1,4.94428,5.71214,17.43008,17.43008,0,0,1,2.55716,10.92363,14.94113,14.94113,0,0,1-1.94729,6.90179C161.06917,148.99836,159.64231,150.75969,158.26476,152.69445Zm-20.22061-23.46291v18.26814c2.34753,0,4.6569.17232,6.92692-.05258a6.95874,6.95874,0,0,0,4.92223-2.74447,9.49044,9.49044,0,0,0,1.96087-7.49146c-.549-3.56523-2.26333-6.22247-5.83128-7.44922C143.4137,128.86486,140.73508,129.46589,138.04415,129.23154Z"/><path class="cls-1" d="M246.52892,65.74357c-.67417,1.90414-1.32572,3.73-1.96677,5.55948a2.51023,2.51023,0,0,1-2.82844,2.0372q-4.32129,0-8.6426-.00116a1.84762,1.84762,0,0,1-1.89651-2.63675c.9715-2.59346,2.03944-5.15184,3.11018-7.7068,1.30973-3.12523,2.69473-6.21907,3.99271-9.34906q4.29707-10.36233,8.53747-20.74814c.526-1.2815.99007-2.58931,1.54548-3.85751a12.28422,12.28422,0,0,1,1.21047-2.20246,2.70532,2.70532,0,0,1,2.31843-1.17162c2.08932.01405,4.17924.03,6.26808-.00534a2.49446,2.49446,0,0,1,2.52487,1.67539c.85565,2.01012,1.66458,4.04008,2.51739,6.05145,1.81769,4.28715,3.67463,8.55785,5.47257,12.85324,2.99621,7.158,5.95257,14.3327,8.9429,21.4932.38184.91431.959,1.75332,1.2847,2.68354.7413,2.11721-.19867,2.81657-1.88788,2.88544-3.12894.12755-6.26721.06748-9.40067.02074-1.19439-.01783-1.78323-.93077-2.155-1.91838-.559-1.48472-1.051-2.99554-1.53858-4.50589a1.44666,1.44666,0,0,0-1.60437-1.18052C257.07991,65.76948,251.82578,65.74357,246.52892,65.74357Zm13.59167-10.47505c-1.66089-4.74666-3.31234-9.46639-5.0448-14.41758-1.7443,4.923-3.41352,9.634-5.10843,14.41758Z"/><path class="cls-1" d="M82.02133,65.74361c-.67351,1.90134-1.32557,3.72718-1.96676,5.55684a2.50754,2.50754,0,0,1-2.82632,2.0398q-4.32161,0-8.64324-.00115a1.85072,1.85072,0,0,1-1.90007-2.63619c.84724-2.31122,1.8036-4.58293,2.734-6.86308,1.64-4.01889,3.2795-8.03808,4.94742-12.04542q4.95133-11.89594,9.93342-23.77906c.64076-1.533,1.346-2.43251,3.54741-2.3577,1.89743.06448,3.7995.04546,5.69813.00238a2.56386,2.56386,0,0,1,2.66587,1.73882q3.11967,7.5043,6.25817,15.00078c2.13963,5.08448,4.3163,10.15339,6.45908,15.23656q2.65605,6.3008,5.26562,12.6211c.7911,1.921-.04847,3.08191-2.16856,3.0827-2.78611.001-5.57373-.05536-8.35771.02147a2.66291,2.66291,0,0,1-2.91559-2.07214c-.58644-1.63716-1.11859-3.29408-1.72748-4.92256a1.04,1.04,0,0,0-.72-.59706C92.89234,65.73547,87.47967,65.74361,82.02133,65.74361Zm8.64182-24.624-.22722-.04346c-1.72727,4.6924-3.45452,9.38481-5.21838,14.17662H95.60734c-1.6605-4.74658-3.30234-9.43987-4.94419-14.13315Z"/><path class="cls-1" d="M314.1534,159.4645c-.6619,1.87808-1.31809,3.72891-1.96628,5.58256a2.52988,2.52988,0,0,1-2.84988,2.01409c-2.84918,0-5.701-.073-8.54654.02891a1.9337,1.9337,0,0,1-1.96478-2.68925c.8843-2.33037,1.827-4.63889,2.7655-6.94835,1.69208-4.16431,3.37076-8.33438,5.10748-12.48012,1.96292-4.68585,4.00119-9.3401,5.97275-14.0224,1.26608-3.00682,2.47082-6.03943,3.703-9.06054.63892-1.56659,1.272-2.596,3.6286-2.51126,1.897.06821,3.79908.0437,5.6977.00356a2.55712,2.55712,0,0,1,2.649,1.758c1.63428,3.95392,3.2883,7.89969,4.92887,11.851.83859,2.01976,1.64825,4.05167,2.49948,6.06607q4.53414,10.73,9.08645,21.45237c.51715,1.2216,1.041,2.44151,1.513,3.68081.64328,1.68923-.16333,2.85994-1.96173,2.86777-2.88079.01257-5.76306-.04978-8.642.02368a2.62877,2.62877,0,0,1-2.8704-2.00755c-.61258-1.62754-1.16079-3.27971-1.71231-4.92945-.13565-.40576-.23614-.6945-.77932-.69244C325.00008,159.4726,319.58818,159.4645,314.1534,159.4645Zm8.63116-24.65734-.24292-.04516-5.176,14.22539h10.381C326.0819,144.22979,324.43322,139.51848,322.78456,134.80716Z"/><path class="cls-1" d="M417.76082,144.1196c.19525-6.1221,1.603-11.13145,4.91815-15.39778a25.35555,25.35555,0,0,1,14.25339-9.63986,24.6903,24.6903,0,0,1,14.99432.92319,22.99046,22.99046,0,0,1,7.0571,4.01364,1.97965,1.97965,0,0,1,.3541,2.54962c-1.22733,2.08217-2.59229,4.09613-3.65253,6.25967a2.36162,2.36162,0,0,1-3.74386.82872,14.9085,14.9085,0,0,0-5.99521-2.5482,13.58678,13.58678,0,0,0-7.65552.73075c-4.23581,1.6808-6.42566,5.00962-7.12912,9.26687a12.69058,12.69058,0,0,0,3.87128,11.92279,11.32693,11.32693,0,0,0,6.248,2.80625,14.26705,14.26705,0,0,0,10.62842-2.63717c1.3299-.93623,2.965-.86759,3.80667.85279,1.0589,2.1643,2.42569,4.17723,3.64194,6.26573.6004,1.03088.277,2.20128-.9513,3.07072a26.75378,26.75378,0,0,1-10.63244,4.60567,21.81948,21.81948,0,0,1-4.902.54074,26.605,26.605,0,0,1-8.91815-1.74719,27.36,27.36,0,0,1-10.41632-7.64185,22.92894,22.92894,0,0,1-5.04013-10.122C418.07219,147.17942,417.92745,145.2714,417.76082,144.1196Z"/><path class="cls-1" d="M372.40435,130.59708v1.11579q0,16.56124-.00019,33.12245c0,1.57882-.64316,2.22476-2.21744,2.22545-2.8479.00122-5.69885-.07917-8.54257.02925-1.79071.06828-2.55282-.94525-2.5473-2.53844.02368-6.83321.0101-13.66653.0101-20.49982V130.59707h-3.34717q-4.41421,0-8.82846-.00037c-1.236-.00047-1.86331-.57257-1.87463-1.80693-.02322-2.53063-.01737-5.06169-.00226-7.59245a1.66668,1.66668,0,0,1,1.80786-1.80294q18.98594-.0057,37.9719-.00016a1.69436,1.69436,0,0,1,1.81329,1.80363c.01312,2.43587.017,4.87194-.00086,7.30776a1.88114,1.88114,0,0,1-2.16055,2.09138C380.50093,130.59719,376.51573,130.59708,372.40435,130.59708Z"/><path class="cls-1" d="M133.40364,42.58037c1.21636-2.14789,2.4327-4.26563,3.61988-6.39957,1.62246-2.91637,3.21156-5.8513,4.83792-8.76547a3.18822,3.18822,0,0,1,3.048-1.75882c3.32331.04529,6.64768.00923,9.97156.022a5.73209,5.73209,0,0,1,1.09265.16641c.85846.17331.97832.68782.54971,1.3577Q153.639,31.71078,150.725,36.2c-.97848,1.51023-1.97244,3.0105-2.96666,4.51047-2.4772,3.73739-4.96835,7.46561-7.42347,11.21742a2.66525,2.66525,0,0,0-.42641,1.36737c-.02789,6.04478-.01825,12.08974-.0188,18.13466-.00014,1.398-.51652,1.90889-1.93626,1.90975q-4.65349.0028-9.307-.00026c-1.34457-.00113-1.86349-.52616-1.86366-1.87734-.00078-5.98162.00615-11.96326-.01474-17.9448a2.34831,2.34831,0,0,0-.33445-1.20944q-3.8727-5.97717-7.80014-11.91883c-2.7937-4.22775-5.621-8.43331-8.40042-12.67037-.25179-.38386-.49906-1.07419-.32283-1.35937a1.82924,1.82924,0,0,1,1.35574-.65937c3.67141-.05229,7.34388-.029,11.016-.02871a2.35064,2.35064,0,0,1,2.05928,1.40116q2.66374,4.57617,5.282,9.17878c1.02411,1.80024,1.99961,3.62809,3.02,5.43048A6.53975,6.53975,0,0,0,133.40364,42.58037Z"/><path class="cls-2" d="M19.26208,164.07616c-1.89868-1.31084-3.8762-2.48483-5.63453-3.92613A38.10162,38.10162,0,0,1,2.42267,144.507a33.60672,33.60672,0,0,1-2.36942-12.1361,32.90639,32.90639,0,0,1,1.71416-12.24975,41.83092,41.83092,0,0,1,6.42567-11.80385,34.66436,34.66436,0,0,1,7.53183-7.13016,40.79677,40.79677,0,0,1,9.94656-5.04609c.4753-.15819.72434-.09617.82713.399a45.33839,45.33839,0,0,1,1.07976,5.41075,17.902,17.902,0,0,1-.72763,7.66311,2.59273,2.59273,0,0,1-.94078,1.28047A23.91057,23.91057,0,0,0,16.99556,121.029a23.25646,23.25646,0,0,0-2.21248,12.60211,24.17966,24.17966,0,0,0,1.58312,6.92465,23.69746,23.69746,0,0,0,4.6233,7.46162,1.03817,1.03817,0,0,1,.19259.869,32.80067,32.80067,0,0,0-1.91165,9.55326C19.22346,160.24175,19.26208,162.04613,19.26208,164.07616Z"/><path class="cls-3" d="M26.13863,1.66165a18.872,18.872,0,0,1,1.44945,9.03047,39.28507,39.28507,0,0,1-.96227,5.13053,1.52869,1.52869,0,0,1-.6391.88762c-4.276,2.55968-7.05837,6.31987-9.14941,10.77755A24.23816,24.23816,0,0,0,14.947,39.61688a20.27033,20.27033,0,0,0,1.26176,5.80837,25.00316,25.00316,0,0,0,4.82157,8.15517,1.11918,1.11918,0,0,1,.15451.87785c-.61557,2.636-1.48325,5.23441-1.843,7.90232a54.04764,54.04764,0,0,0-.0653,7.13367.348.348,0,0,1-.22535-.00606,34.61092,34.61092,0,0,1-9.4627-7.547A41.607,41.607,0,0,1,2.32175,49.7477,33.41387,33.41387,0,0,1,.06875,38.698,32.39047,32.39047,0,0,1,1.65421,26.37,40.33323,40.33323,0,0,1,8.76208,13.44663,35.89188,35.89188,0,0,1,15.56732,7.059a40.01,40.01,0,0,1,8.867-4.74678C24.98574,2.10894,25.5326,1.89336,26.13863,1.66165Z"/><path class="cls-1" d="M407.92739,143.40832q0,10.6791-.00025,21.3582a2.04574,2.04574,0,0,1-2.30368,2.29377c-2.62692.00307-5.25476-.04318-7.88043.01416-2.282.04984-2.55856-1.04812-2.69794-2.63525-.011-.1256-.00146-.253-.00146-.37956q0-20.78868.00708-41.57729a7.11761,7.11761,0,0,1,.172-1.58481,2.18418,2.18418,0,0,1,2.14584-1.50341q4.03537-.00933,8.07062.00022a2.4266,2.4266,0,0,1,2.49054,2.361q.00266.1-.0029.19989Q407.92864,132.68176,407.92739,143.40832Z"/><path class="cls-4" d="M28.72364,59.36189c2.39895.43632,4.63273.97788,6.8987,1.22842a23.32014,23.32014,0,0,0,16.1366-4.28621c1.64054-1.12214,2.60155-.91745,3.63054.76553,1.4138,2.31237,2.76721,4.66157,4.15988,6.987a7.9971,7.9971,0,0,1,.90192,1.34469c.376,1.12-.36213,1.8226-1.17829,2.37344a39.0356,39.0356,0,0,1-12.96707,5.73545,45.69933,45.69933,0,0,1-12.10447.7398A25.45781,25.45781,0,0,1,29.952,73.5609a1.32206,1.32206,0,0,1-.7992-.71608A19.52682,19.52682,0,0,1,28.49456,60.187c.07121-.2663.14063-.53319.21862-.79752C28.73918,59.30137,28.78938,59.22038,28.72364,59.36189Z"/><path class="cls-5" d="M28.74315,153.55546c1.48759.3569,2.81465.679,4.14353.99339a22.87428,22.87428,0,0,0,11.5678-.5011,22.72183,22.72183,0,0,0,7.2196-3.50949c1.47071-1.05483,2.69578-.7475,3.619.796,1.63027,2.72568,3.31608,5.41914,4.88708,8.17822a1.36969,1.36969,0,0,1-.25739,1.77016,28.64809,28.64809,0,0,1-8.42457,4.82687c-5.4511,2.27152-11.17951,2.71375-16.99371,2.4515a30.351,30.351,0,0,1-4.29092-.58611,1.54433,1.54433,0,0,1-.9956-.82239,18.674,18.674,0,0,1-1.0995-10.408C28.33157,155.70806,28.52584,154.66771,28.74315,153.55546Z"/><path class="cls-6" d="M34.94008.05508A49.24674,49.24674,0,0,1,45.4155.67854,36.32988,36.32988,0,0,1,58.74508,6.29663c.79257.53881,1.77275,1.08359,1.52975,2.31079a4.13877,4.13877,0,0,1-.61775,1.16317q-2.13915,3.63685-4.286,7.26918c-.52229.88538-1.08738,1.75522-2.298,1.58517a3.134,3.134,0,0,1-1.36473-.54391A24.322,24.322,0,0,0,40.7578,13.74256c-1.48013-.223-2.99723-.20063-4.62467-.29774A30.49948,30.49948,0,0,0,34.94008.05508Z"/><path class="cls-7" d="M36.30241,107.70725a30.25571,30.25571,0,0,0-1.24709-13.5658c3.14009.19973,6.07583.23717,8.96925.60621a32.6213,32.6213,0,0,1,11.61351,3.98159c1.12.61674,2.19108,1.32531,3.26511,2.02183a2.182,2.182,0,0,1,.82267,2.97413q-.01794.03169-.03695.06275-2.30946,4.02752-4.70739,8.00407c-.78285,1.29583-1.87027,1.46892-3.21936.69338a49.8971,49.8971,0,0,0-5.16553-2.83312,19.27654,19.27654,0,0,0-7.05155-1.66607C38.51592,107.95853,37.48986,107.8133,36.30241,107.70725Z"/></g></g></g></g></svg>