<svg xmlns="http://www.w3.org/2000/svg" viewBox="0 0 459.65125 168.62825"><defs><style>.cls-1{fill:#fff;}.cls-2{fill:#4ac9e9;}.cls-3{fill:#ffe144;}.cls-4{fill:#f44;}.cls-5{fill:#785bd6;}.cls-6{fill:#ffa543;}.cls-7{fill:#448fff;}</style></defs><g id="Layer_2" data-name="Layer 2"><g id="Layer_1-2" data-name="Layer 1"><g id="Layer_2-2" data-name="Layer 2"><g id="Layer_1-2-2" data-name="Layer 1-2"><g id="Layer_2-2-2" data-name="Layer 2-2"><g id="Layer_1-2-2-2" data-name="Layer 1-2-2"><path class="cls-1" d="M272.38943,137.123q-3.13907,8.52885-6.28,17.04508a11.66492,11.66492,0,0,1-.99722,2.26417,2.89525,2.89525,0,0,1-2.62262,1.33045c-2.24731-.025-4.49506-.00739-6.74265-.00742a3.27467,3.27467,0,0,1-3.56338-2.39252c-.975-2.62326-1.89446-5.26725-2.8792-7.88679-1.26753-3.37186-2.57583-6.72839-3.87112-10.08978-.01825-.04732-.09558-.07186-.19585-.14276-1.24078,3.046-2.48457,6.07283-3.70776,9.10792-2.25444,5.5938-4.4874,11.19624-6.75432,16.785a17.23036,17.23036,0,0,1-1.26143,2.48075,2.83653,2.83653,0,0,1-2.63914,1.45889c-2.84832-.04588-5.69918-.06808-8.54644.00372-1.94357.049-2.73342-1.13952-2.14074-2.92172.668-2.00874,1.52308-3.95592,2.313-5.92335,3.67912-9.16364,7.34354-18.33324,11.05843-27.48236,1.18113-2.90882,2.48906-5.76667,3.76922-8.63434a7.36573,7.36573,0,0,1,1.01-1.66014,2.703,2.703,0,0,1,2.189-1.07424c3.07048.02259,6.144.08687,9.21074-.02228a3.17755,3.17755,0,0,1,3.35721,2.13051c.95808,2.3292,1.8011,4.70594,2.68021,7.06728,1.03955,2.79234,2.06573,5.58961,3.137,8.49107,1.37683-3.80835,2.67306-7.56045,4.09787-11.26312a50.98954,50.98954,0,0,1,2.47745-5.261,2.22509,2.22509,0,0,1,2.11258-1.14025q4.98568.02439,9.97158.00228a2.15863,2.15863,0,0,1,2.1026,1.1384c1.1298,2.3168,2.25452,4.64221,3.23563,7.02416,2.685,6.5188,5.2963,13.06789,7.93414,19.606.495,1.22681.95752,2.467,1.46961,3.68648,1.73987,4.14336,3.51346,8.27269,5.22549,12.42745a6.4519,6.4519,0,0,1,.38184,2.086,1.62064,1.62064,0,0,1-1.544,1.69384h0q-.038.00176-.076.00174c-3.29208.02293-6.58468.03473-9.87646-.00492a2.53549,2.53549,0,0,1-2.31293-1.76649c-1.1138-2.63414-2.18426-5.2867-3.26089-7.93643-.8339-2.05231-1.6348-4.11809-2.479-6.16611q-2.86687-6.955-5.76571-13.89678C272.58572,137.23192,272.50723,137.20661,272.38943,137.123Z"/><path class="cls-1" d="M191.49388,43.21915c1.72419-4.70606,3.4349-9.41659,5.18458-14.1126a14.83577,14.83577,0,0,1,1.13034-2.20408,2.39156,2.39156,0,0,1,2.24268-1.238c3.29256.01729,6.5852.00993,9.87782.00437a2.16787,2.16787,0,0,1,2.14411,1.20983c1.10356,2.329,2.21954,4.6554,3.2165,7.0307,1.51255,3.60362,2.90686,7.25664,4.39112,10.87237,2.0793,5.06517,4.197,10.11455,6.29461,15.17223,1.30915,3.15655,2.63488,6.30661,3.89818,9.48144a7.06406,7.06406,0,0,1,.41921,2.17212,1.62,1.62,0,0,1-1.68575,1.72593c-3.26083.01789-6.52219.03167-9.78267-.00643a2.58771,2.58771,0,0,1-2.37083-1.82862c-1.10337-2.638-2.16582-5.29315-3.23815-7.944q-3.77169-9.32377-7.54715-18.646a13.82685,13.82685,0,0,0-.90017-1.579c-2.21224,6.07041-4.37738,12.07495-6.59722,18.0592-.568,1.53142-1.42309,2.81233-3.8602,2.67119-2.11412-.12244-4.24093-.02817-6.36215-.02455a3.1539,3.1539,0,0,1-3.284-2.22052c-1.231-3.38062-2.49651-6.74867-3.73916-10.1251-.99679-2.70847-1.98065-5.4217-3.04692-8.34278-.20485.49322-.336.805-.46409,1.1179q-5.37225,13.11967-10.74192,26.24041c-.8697,2.12741-1.61271,2.6351-3.95512,2.6351-2.65942,0-5.321-.06608-7.97752.02231-1.89647.0631-2.81278-1.09337-2.15319-2.9738.793-2.26085,1.697-4.48376,2.58849-6.70887,2.1181-5.28671,4.22806-10.577,6.39662-15.84308,1.831-4.44628,3.74816-8.857,5.61028-13.29058.85638-2.039,1.65226-4.10348,2.51925-6.13781a6.97551,6.97551,0,0,1,1.0031-1.66338,2.70327,2.70327,0,0,1,2.18541-1.0816c3.10252.02007,6.20789.08367,9.30685-.0233a3.09853,3.09853,0,0,1,3.23237,2.03764c1.113,2.66355,2.0756,5.39023,3.08663,8.096.70934,1.89831,1.37877,3.81169,2.10276,5.70427A18.41788,18.41788,0,0,0,191.49388,43.21915Z"/><path class="cls-1" d="M300.02853,40.10048v7.38371q0,11.96178-.00031,23.92357c-.00012,1.33751-.5906,1.93012-1.93466,1.93146q-4.6529.00467-9.30584-.00045a1.71572,1.71572,0,0,1-1.86463-1.76222c-.013-.189-.002-.37961-.002-.56948q0-21.4078.00009-42.81559c0-1.83826.68835-2.52041,2.54144-2.52041,2.65885,0,5.3183-.03207,7.976.022a5.46516,5.46516,0,0,1,2.0382.47676c2.47815,1.09416,4.913,2.286,7.38791,3.38782,4.637,2.06443,9.28952,4.094,13.93918,6.12994.44293.194.91113.33015,1.4502.52266,0-2.90259-.001-5.71151.00042-8.52044a1.76168,1.76168,0,0,1,1.97663-2.018c2.912-.00238,5.826.06127,8.73513-.03118a2.25157,2.25157,0,0,1,2.23276,2.18618c-.042,14.5249-.027,29.05-.02838,43.575a1.73139,1.73139,0,0,1-1.95773,1.93773q-4.60542.00332-9.21091-.00045c-1.22378-.00139-1.74686-.53038-1.74713-1.76317-.00165-6.96189-.01474-13.92384.01868-20.88556.00372-.77952-.2793-1.01714-.97107-1.294-2.23069-.8926-4.40714-1.92051-6.60437-2.89664q-7.1424-3.17307-14.28574-6.34364A1.88134,1.88134,0,0,0,300.02853,40.10048Z"/><path class="cls-1" d="M193.34428,168.01406c-13.606.18026-25.0162-10.53319-24.75893-25.26568.22942-13.13781,10.6426-25.06417,26.66552-24.1045,11.70349.701,23.5854,10.0747,22.68759,26.53C217.27948,157.25211,207.79939,168.06879,193.34428,168.01406Zm.11749-37.49564c-.74331.08926-1.488.169-2.22975.26948a9.87438,9.87438,0,0,0-7.05871,4.39332,14.50293,14.50293,0,0,0-2.04668,11.73689,11.28741,11.28741,0,0,0,12.87837,9.14433,10.24972,10.24972,0,0,0,7.36125-4.2374,14.355,14.355,0,0,0,2.31411-11.75779c-1.04729-5.376-5.2809-9.645-11.21857-9.54883Z"/><path class="cls-1" d="M98.85788,155.12926H81.00138c0,3.06071-.07839,6.092.0245,9.11713.08419,2.47567-.5878,2.8861-2.88347,2.83088-2.81607-.06775-5.635-.01443-8.45269-.01693-1.28756-.00115-1.7952-.51421-1.79528-1.81232q-.00117-21.93474.0001-43.86947a1.76665,1.76665,0,0,1,2.01513-1.986q4.464-.003,8.928,0a1.89371,1.89371,0,0,1,2.16355,2.15637c.00039,7.46817.00016,14.93633.00016,22.46834h17.8565v-.9574q0-10.73.00038-21.46c.0002-1.566.6505-2.2077,2.23063-2.20789q4.369-.00051,8.738.00073c1.45507.00138,2.13816.67175,2.13819,2.08956q.00052,21.83972-.00009,43.67948c-.00005,1.34076-.53679,1.89556-1.85784,1.89769q-4.70144.00753-9.40287.00052a1.62729,1.62729,0,0,1-1.84413-1.83409c-.007-3.03857-.00229-6.07716-.00229-9.11574Z"/><path class="cls-1" d="M158.26475,152.69444c.98992,2.1034,2.02318,4.34232,3.09506,6.56258.84491,1.75011,1.73233,3.47983,2.61029,5.21384a1.666,1.666,0,0,1-1.50782,2.56769c-3.13166.06874-6.26725.07571-9.39838-.00463a2.90356,2.90356,0,0,1-2.55278-1.91183c-.92029-2.01679-1.87144-4.02094-2.72765-6.06473a1.50172,1.50172,0,0,0-1.72406-1.15381c-2.64842.124-5.3065.04154-8.06918.04154v6.64651c0,1.8951-.56355,2.4695-2.42261,2.4695q-4.36748,0-8.735-.00072a1.719,1.719,0,0,1-1.94912-1.94751q-.00178-21.97444-.00006-43.949c.00011-1.24138.5165-1.77006,1.741-1.77061,6.45628-.00287,12.91518-.11308,19.36784.03987a17.9536,17.9536,0,0,1,10.67442,4.10179,22.96793,22.96793,0,0,1,4.94427,5.71214,17.43006,17.43006,0,0,1,2.55716,10.92363,14.94117,14.94117,0,0,1-1.94729,6.90179C161.06916,148.99837,159.6423,150.75969,158.26475,152.69444Zm-20.22061-23.4629v18.26814c2.34753,0,4.65691.17232,6.92693-.05258a6.95875,6.95875,0,0,0,4.92222-2.74448,9.49038,9.49038,0,0,0,1.96088-7.49145c-.549-3.56523-2.26334-6.22247-5.83129-7.44922C143.41369,128.86485,140.73507,129.4659,138.04414,129.23154Z"/><path class="cls-1" d="M246.52891,65.74357c-.67416,1.90414-1.32571,3.73-1.96676,5.55948a2.51024,2.51024,0,0,1-2.82845,2.0372q-4.32129,0-8.64259-.00116a1.84763,1.84763,0,0,1-1.89652-2.63675c.9715-2.59346,2.03945-5.15184,3.11019-7.7068,1.30972-3.12523,2.69473-6.21907,3.9927-9.34906q4.29705-10.36233,8.53748-20.74814c.526-1.2815.99006-2.58931,1.54548-3.85751a12.28518,12.28518,0,0,1,1.21047-2.20246,2.70533,2.70533,0,0,1,2.31843-1.17162c2.08933.01405,4.17925.03,6.26809-.00534a2.49446,2.49446,0,0,1,2.52487,1.67539c.85565,2.01012,1.66458,4.04008,2.51739,6.05145,1.81769,4.28715,3.67462,8.55785,5.47257,12.85324,2.99621,7.158,5.95257,14.3327,8.9429,21.4932.38183.91431.959,1.75332,1.2847,2.68354.7413,2.11721-.19867,2.81657-1.88788,2.88544-3.12894.12755-6.26721.06748-9.40067.02073-1.19439-.01783-1.78323-.93077-2.155-1.91838-.559-1.48472-1.051-2.99553-1.53857-4.50589a1.44667,1.44667,0,0,0-1.60437-1.18052C257.07989,65.76948,251.82577,65.74357,246.52891,65.74357Zm13.59166-10.47505c-1.66089-4.74666-3.31235-9.46639-5.0448-14.41758-1.74429,4.923-3.41351,9.634-5.10843,14.41758Z"/><path class="cls-1" d="M82.02133,65.74361c-.67351,1.90134-1.32557,3.72718-1.96676,5.55684a2.50754,2.50754,0,0,1-2.82632,2.0398q-4.32161,0-8.64324-.00115a1.85072,1.85072,0,0,1-1.90007-2.63619c.84724-2.31122,1.8036-4.58294,2.734-6.86308,1.64-4.01889,3.2795-8.03809,4.94742-12.04543q4.95133-11.89593,9.93342-23.77906c.64076-1.533,1.346-2.43251,3.54741-2.3577,1.89743.06448,3.7995.04546,5.69812.00238a2.56387,2.56387,0,0,1,2.66588,1.73882q3.11965,7.50431,6.25817,15.00078c2.13963,5.08448,4.3163,10.15339,6.45908,15.23656q2.65607,6.30081,5.26562,12.6211c.7911,1.921-.04847,3.08191-2.16857,3.0827-2.78611.001-5.57373-.05536-8.35771.02147a2.66291,2.66291,0,0,1-2.91559-2.07214c-.58644-1.63716-1.11859-3.29408-1.72747-4.92256a1.04,1.04,0,0,0-.72-.59706C92.89234,65.73548,87.47966,65.74361,82.02133,65.74361Zm8.64182-24.624-.22722-.04346c-1.72727,4.6924-3.45452,9.38481-5.21837,14.17662H95.60733C93.94683,50.50619,92.305,45.8129,90.66315,41.11961Z"/><path class="cls-1" d="M314.15341,159.46449c-.6619,1.87809-1.31809,3.72892-1.96628,5.58257a2.52988,2.52988,0,0,1-2.84988,2.01408c-2.84919,0-5.701-.073-8.54654.02892a1.93371,1.93371,0,0,1-1.96479-2.68926c.88431-2.33036,1.827-4.63888,2.76551-6.94834,1.69207-4.16431,3.37075-8.33439,5.10748-12.48012,1.96292-4.68585,4.00119-9.34011,5.97275-14.0224,1.26608-3.00682,2.47082-6.03943,3.703-9.06054.63892-1.56659,1.272-2.596,3.6286-2.51126,1.897.0682,3.79907.0437,5.69769.00356a2.55712,2.55712,0,0,1,2.649,1.758c1.63428,3.95392,3.2883,7.8997,4.92886,11.851.8386,2.01976,1.64826,4.05167,2.49949,6.06607q4.53414,10.73,9.08645,21.45238c.51715,1.2216,1.041,2.44151,1.513,3.68081.64328,1.68923-.16333,2.85994-1.96173,2.86777-2.8808.01257-5.76306-.04977-8.642.02368a2.62875,2.62875,0,0,1-2.87039-2.00755c-.61258-1.62753-1.1608-3.27971-1.71231-4.92944-.13565-.40577-.23614-.69451-.77933-.69245C325.00009,159.4726,319.58816,159.46449,314.15341,159.46449Zm8.63116-24.65733-.24292-.04516-5.176,14.22538h10.381c-1.66476-4.75758-3.31345-9.4689-4.96213-14.18022Z"/><path class="cls-1" d="M417.76083,144.1196c.19525-6.1221,1.603-11.13145,4.91815-15.39778a25.35555,25.35555,0,0,1,14.25339-9.63986,24.69022,24.69022,0,0,1,14.99432.92318,22.99049,22.99049,0,0,1,7.0571,4.01365,1.97965,1.97965,0,0,1,.3541,2.54962c-1.22733,2.08217-2.59229,4.09613-3.65253,6.25967a2.36161,2.36161,0,0,1-3.74387.82872,14.90854,14.90854,0,0,0-5.9952-2.5482,13.58677,13.58677,0,0,0-7.65552.73074c-4.23581,1.6808-6.42566,5.00962-7.12912,9.26688a12.6906,12.6906,0,0,0,3.87127,11.92279,11.3269,11.3269,0,0,0,6.248,2.80624,14.267,14.267,0,0,0,10.62842-2.63717c1.32989-.93624,2.965-.86759,3.80667.85278,1.0589,2.16431,2.42569,4.17723,3.64194,6.26573.6004,1.03088.277,2.20128-.9513,3.07073A26.75391,26.75391,0,0,1,447.7742,167.993a21.81891,21.81891,0,0,1-4.902.54074,26.60468,26.60468,0,0,1-8.91815-1.74719,27.36,27.36,0,0,1-10.41632-7.64184,22.929,22.929,0,0,1-5.04013-10.122C418.0722,147.17941,417.92746,145.27139,417.76083,144.1196Z"/><path class="cls-1" d="M372.40435,130.59708v1.11578q0,16.56123-.00018,33.12245c0,1.57883-.64316,2.22477-2.21744,2.22545-2.8479.00122-5.69885-.07916-8.54257.02925-1.79071.06829-2.55282-.94525-2.5473-2.53843.02368-6.83321.0101-13.66654.0101-20.49982V130.59708h-3.34717q-4.41422,0-8.82846-.00037c-1.236-.00047-1.86331-.57257-1.87463-1.80693-.02323-2.53063-.01737-5.06169-.00226-7.59245a1.66665,1.66665,0,0,1,1.80786-1.80294q18.986-.0057,37.97189-.00016a1.69441,1.69441,0,0,1,1.8133,1.80362c.01312,2.43587.017,4.87195-.00086,7.30777a1.88114,1.88114,0,0,1-2.16055,2.09138C380.50091,130.59719,376.51571,130.59708,372.40435,130.59708Z"/><path class="cls-1" d="M133.40364,42.58037c1.21635-2.14789,2.43269-4.26563,3.61987-6.39957,1.62247-2.91637,3.21156-5.8513,4.83792-8.76547a3.18823,3.18823,0,0,1,3.048-1.75882c3.3233.04529,6.64767.00923,9.97155.022a5.73288,5.73288,0,0,1,1.09265.16641c.85846.17331.97832.68783.54972,1.35771Q153.639,31.71078,150.725,36.2c-.97848,1.51023-1.97244,3.0105-2.96666,4.51047-2.4772,3.73739-4.96835,7.46561-7.42347,11.21742a2.66528,2.66528,0,0,0-.42641,1.36737c-.02789,6.04478-.01825,12.08974-.0188,18.13467-.00014,1.398-.51653,1.90889-1.93626,1.90975q-4.65349.0028-9.307-.00026c-1.34457-.00113-1.86349-.52616-1.86366-1.87734-.00078-5.98162.00615-11.96326-.01474-17.94481a2.34837,2.34837,0,0,0-.33445-1.20943q-3.87271-5.97717-7.80014-11.91883c-2.79371-4.22775-5.621-8.43331-8.40043-12.67037-.25179-.38386-.49906-1.07419-.32283-1.35937a1.82921,1.82921,0,0,1,1.35575-.65937c3.67141-.05229,7.34388-.029,11.016-.02871a2.35065,2.35065,0,0,1,2.05928,1.40116q2.66375,4.57616,5.282,9.17877c1.0241,1.80024,1.9996,3.62809,3.02,5.43048A6.53859,6.53859,0,0,0,133.40364,42.58037Z"/><path class="cls-2" d="M19.26208,164.07616c-1.89868-1.31084-3.8762-2.48483-5.63453-3.92613A38.10162,38.10162,0,0,1,2.42267,144.507a33.60659,33.60659,0,0,1-2.36942-12.1361,32.90644,32.90644,0,0,1,1.71416-12.24975,41.83062,41.83062,0,0,1,6.42567-11.80384,34.66389,34.66389,0,0,1,7.53183-7.13016,40.79659,40.79659,0,0,1,9.94656-5.04609c.4753-.15819.72434-.09617.82713.399a45.33839,45.33839,0,0,1,1.07976,5.41075,17.9022,17.9022,0,0,1-.72763,7.66311,2.59274,2.59274,0,0,1-.94079,1.28047,23.91059,23.91059,0,0,0-8.91438,10.1346,23.25637,23.25637,0,0,0-2.21248,12.60211,24.17933,24.17933,0,0,0,1.58312,6.92465,23.69739,23.69739,0,0,0,4.6233,7.46162,1.03819,1.03819,0,0,1,.19259.869,32.80067,32.80067,0,0,0-1.91165,9.55326C19.22346,160.24175,19.26208,162.04613,19.26208,164.07616Z"/><path class="cls-3" d="M26.13863,1.66165a18.87211,18.87211,0,0,1,1.44945,9.03047,39.2851,39.2851,0,0,1-.96228,5.13053,1.52867,1.52867,0,0,1-.63909.88762c-4.276,2.55968-7.05837,6.31987-9.14941,10.77755A24.23815,24.23815,0,0,0,14.947,39.61688a20.27007,20.27007,0,0,0,1.26176,5.80837,25.00313,25.00313,0,0,0,4.82156,8.15517,1.11918,1.11918,0,0,1,.15452.87785c-.61557,2.636-1.48325,5.23441-1.843,7.90232a54.04762,54.04762,0,0,0-.06529,7.13367.348.348,0,0,1-.22535-.00606,34.611,34.611,0,0,1-9.4627-7.547A41.60676,41.60676,0,0,1,2.32175,49.7477,33.41373,33.41373,0,0,1,.06875,38.698,32.39036,32.39036,0,0,1,1.65421,26.37,40.333,40.333,0,0,1,8.76208,13.44663,35.8921,35.8921,0,0,1,15.56732,7.059a40.01013,40.01013,0,0,1,8.867-4.74678C24.98574,2.10894,25.5326,1.89336,26.13863,1.66165Z"/><path class="cls-1" d="M407.92739,143.40833q0,10.6791-.00024,21.3582a2.0457,2.0457,0,0,1-2.30368,2.29377c-2.62692.00307-5.25476-.04318-7.88043.01416-2.282.04984-2.55857-1.04812-2.69794-2.63525-.011-.12559-.00146-.253-.00146-.37956q0-20.78869.00708-41.57729a7.11819,7.11819,0,0,1,.172-1.58481,2.18419,2.18419,0,0,1,2.14585-1.50341q4.03536-.00933,8.07061.00023a2.4266,2.4266,0,0,1,2.49054,2.36093v.00007q.00266.1-.00289.19989Q407.92869,132.68176,407.92739,143.40833Z"/><path class="cls-4" d="M28.72364,59.36189c2.39895.43632,4.63273.97788,6.8987,1.22842a23.32014,23.32014,0,0,0,16.1366-4.28621c1.64054-1.12214,2.60155-.91745,3.63054.76553,1.4138,2.31237,2.76721,4.66157,4.15988,6.987a7.99751,7.99751,0,0,1,.90192,1.34469c.376,1.12-.36213,1.8226-1.17829,2.37345a39.0356,39.0356,0,0,1-12.96707,5.73545,45.69933,45.69933,0,0,1-12.10447.7398A25.45869,25.45869,0,0,1,29.952,73.5609a1.322,1.322,0,0,1-.7992-.71608A19.52677,19.52677,0,0,1,28.49456,60.187c.07121-.2663.14063-.53319.21862-.79752C28.73918,59.30137,28.78938,59.22038,28.72364,59.36189Z"/><path class="cls-5" d="M28.74315,153.55547c1.48759.3569,2.81465.679,4.14353.99339a22.87428,22.87428,0,0,0,11.5678-.5011,22.72151,22.72151,0,0,0,7.2196-3.50949c1.47071-1.05482,2.69578-.7475,3.619.796,1.63026,2.72567,3.31608,5.41914,4.88708,8.17822a1.3697,1.3697,0,0,1-.25739,1.77016,28.64844,28.64844,0,0,1-8.42457,4.82687c-5.4511,2.27151-11.17952,2.71374-16.99371,2.45151a30.35084,30.35084,0,0,1-4.29092-.58611,1.54431,1.54431,0,0,1-.9956-.82239,18.6739,18.6739,0,0,1-1.0995-10.408C28.33157,155.70806,28.52584,154.66771,28.74315,153.55547Z"/><path class="cls-6" d="M34.94007.05508A49.24687,49.24687,0,0,1,45.4155.67854,36.33,36.33,0,0,1,58.74508,6.29663c.79256.53881,1.77275,1.08359,1.52975,2.31079a4.13877,4.13877,0,0,1-.61775,1.16317q-2.13915,3.63685-4.286,7.26918c-.52229.88538-1.08738,1.75522-2.298,1.58517a3.13388,3.13388,0,0,1-1.36473-.54391A24.322,24.322,0,0,0,40.7578,13.74256c-1.48013-.223-2.99723-.20063-4.62467-.29774A30.49948,30.49948,0,0,0,34.94007.05508Z"/><path class="cls-7" d="M36.30241,107.70725a30.25585,30.25585,0,0,0-1.24709-13.5658c3.14009.19973,6.07583.23717,8.96925.60621a32.62144,32.62144,0,0,1,11.61351,3.98159c1.12.61674,2.19108,1.32531,3.26511,2.02183a2.182,2.182,0,0,1,.82267,2.97413q-.018.03169-.03695.06275-2.30946,4.02752-4.70739,8.00406c-.78285,1.29583-1.87027,1.46892-3.21936.69339a49.89906,49.89906,0,0,0-5.16553-2.83313,19.27658,19.27658,0,0,0-7.05155-1.66606C38.51591,107.95853,37.48986,107.8133,36.30241,107.70725Z"/></g></g></g></g></g></g></svg>