<svg xmlns="http://www.w3.org/2000/svg" viewBox="0 0 123.0457 75.18075"><defs><style>.cls-1{fill:#09bae7;}.cls-2{fill:#fcc300;}.cls-3{fill:#e81616;}.cls-4{fill:#4c18d0;}.cls-5{fill:#fa8300;}.cls-6{fill:#0665f2;}</style></defs><g id="Layer_2" data-name="Layer 2"><g id="Layer_1-2" data-name="Layer 1"><g id="Layer_2-2" data-name="Layer 2"><g id="Layer_1-2-2" data-name="Layer 1-2"><path class="cls-1" d="M89.19856,1.94052a20.81284,20.81284,0,0,1,.40684,14.1024,1.47017,1.47017,0,0,1-.6389.66818A23.37107,23.37107,0,0,0,77.7488,35.71671a24.38974,24.38974,0,0,0,5.94945,18.45768,1.60377,1.60377,0,0,1,.17894,1.327,35.795,35.795,0,0,0-1.91063,11.09854c-.01445,1.20165.168,2.40566.26188,3.62913A36.93605,36.93605,0,0,1,63.17011,35.02664,37.187,37.187,0,0,1,89.19856,1.94052Z"/><path class="cls-2" d="M26.023,1.98224a49.058,49.058,0,0,1,1.11639,4.90784,20.491,20.491,0,0,1-.84048,8.94436,2.49646,2.49646,0,0,1-.92593,1.21385A23.1905,23.1905,0,0,0,14.80751,34.32138c-.88289,7.3871.84228,14.05863,5.77094,19.78392a1.36891,1.36891,0,0,1,.14527,1.13119,33.08888,33.08888,0,0,0-1.931,12.8184c.041.6397.10045,1.27825.1696,2.1464A36.557,36.557,0,0,1,7.93684,60.7088,36.43082,36.43082,0,0,1,.00569,37.243,37.30974,37.30974,0,0,1,26.023,1.98224Z"/><path class="cls-3" d="M28.58863,59.966c1.72517.42243,3.37374.95486,5.0642,1.2171A23.63824,23.63824,0,0,0,51.1654,57.14022c1.96663-1.34326,2.78874-1.15974,3.99356.8658q2.06839,3.47742,4.12663,6.96088c1.07062,1.82167.87381,2.59246-.85853,3.74122a39.94786,39.94786,0,0,1-18.34375,6.34316c-3.50047.36353-6.82391-.24708-10.2009-.75912a1.27454,1.27454,0,0,1-.84326-.66435A20.379,20.379,0,0,1,28.58863,59.966Z"/><path class="cls-4" d="M91.7827,60.16082c2.4001.43444,4.6667,1.02957,6.96722,1.22447a23.0868,23.0868,0,0,0,15.39316-4.19559c2.04417-1.40528,2.86712-1.23313,4.13449.91221,1.51659,2.56716,3.044,5.12844,4.51784,7.72008.53274.93678.198,1.86283-.842,2.57625a35.95839,35.95839,0,0,1-14.22018,5.96488,48.181,48.181,0,0,1-7.98939.81742,44.35979,44.35979,0,0,1-6.68893-.84662,1.06989,1.06989,0,0,1-.71243-.55147A20.57042,20.57042,0,0,1,91.7827,60.16082Z"/><path class="cls-5" d="M35.86535,13.58366A29.05671,29.05671,0,0,0,34.66638.11634c1.58-.027,3.0433-.16749,4.487-.05551a37.99453,37.99453,0,0,1,13.943,3.47037c1.93489.94675,3.78464,2.07721,5.62672,3.20025a1.94476,1.94476,0,0,1,.7404,2.79652c-1.57714,2.78662-3.187,5.55694-4.87013,8.28036-.78895,1.27653-1.89334,1.38728-3.25071.44188a24.46071,24.46071,0,0,0-10.603-4.30313C39.158,13.72062,37.54662,13.70247,35.86535,13.58366Z"/><path class="cls-6" d="M99.20414,13.58469A28.94148,28.94148,0,0,0,98.00425.03156c1.42482,0,2.701-.0795,3.9645.01385a38.62483,38.62483,0,0,1,15.22418,3.97734c1.52867.79587,2.99975,1.71092,4.45311,2.64034a2.02836,2.02836,0,0,1,.75129,3.1311q-2.22481,3.885-4.53307,7.722c-.93141,1.54084-2.01712,1.75382-3.5257.70358a24.01961,24.01961,0,0,0-10.49787-4.25516C102.35486,13.7575,100.84625,13.714,99.20414,13.58469Z"/></g></g></g></g></svg>