<?xml version="1.0" encoding="utf-8"?>
<!-- Generator: Adobe Illustrator 24.1.2, SVG Export Plug-In . SVG Version: 6.00 Build 0)  -->
<svg version="1.1" id="Layer_1" xmlns="http://www.w3.org/2000/svg" xmlns:xlink="http://www.w3.org/1999/xlink" x="0px" y="0px"
	 viewBox="0 0 32.4 19.1" style="enable-background:new 0 0 32.4 19.1;" xml:space="preserve">
<style type="text/css">
	.st0{fill:#4AC9E9;}
	.st1{fill:#FFE144;}
	.st2{fill:#FF4444;}
	.st3{fill:#785BD6;}
	.st4{fill:#FFA543;}
	.st5{fill:#448FFF;}
</style>
<path class="st0" d="M21.6,17.9c-0.5-0.3-0.9-0.6-1.4-1c-1.3-1.1-2.3-2.5-2.9-4.1c-0.3-1-0.5-2-0.5-3c0-1.6,0.3-3.2,1.1-4.6
	c1.1-2.2,3-3.8,5.3-4.6c0.1,0,0.2,0,0.2,0.1c0.1,0.5,0.2,0.9,0.3,1.4c0.1,0.7,0,1.3-0.2,2c0,0.1-0.1,0.2-0.2,0.3
	c-1.5,0.9-2.5,2.4-2.7,4.1c-0.3,1.7,0.1,3.5,1.1,4.9c0,0,0,0,0,0c0.4,0.3,0.4,0.7,0.2,1.2c-0.3,1-0.4,2-0.3,3.1
	C21.6,17.7,21.6,17.8,21.6,17.9L21.6,17.9z"/>
<path class="st1" d="M7.1,0.5C7.4,1.3,7.5,2.1,7.4,3c0,0.2,0,0.3-0.1,0.5C7.3,3.9,7,4.3,6.7,4.5C5.4,5.4,4.6,6.8,4.3,8.3
	c-0.3,1.6,0,3.3,1,4.7c0.1,0.2,0.3,0.4,0.4,0.6c0,0.1,0.1,0.1,0.1,0.2c-0.2,0.7-0.4,1.3-0.5,2c0,0.6-0.1,1.2,0,1.8
	c-3.3-1.8-5.1-5.3-4.8-9C0.9,4.9,3.4,1.6,7.1,0.5z"/>
<path class="st2" d="M15.6,16.5c0.2,0.3,0.1,0.6-0.2,0.7c0,0,0,0,0,0c-1.2,0.8-2.5,1.3-3.9,1.6c-1.1,0.2-2.3,0.2-3.4,0
	c-0.2,0-0.3-0.1-0.4-0.3c-0.4-1.1-0.4-2.2-0.1-3.3c0,0,0-0.1,0,0c0.6,0.1,1.1,0.2,1.7,0.3c1.4,0.2,2.9-0.2,4.1-1.1
	c0.4-0.3,0.7-0.2,1,0.2C14.8,15.2,15.2,15.9,15.6,16.5"/>
<path class="st3" d="M24,15.2c0.3,0.1,0.7,0.2,1,0.2c1.6,0.4,3.4,0,4.7-1c0.4-0.3,0.7-0.2,1,0.2c0.4,0.6,0.7,1.2,1.1,1.8
	c0.2,0.3,0.2,0.7-0.1,0.9c0,0-0.1,0-0.1,0.1c-1.2,0.8-2.6,1.3-4,1.5c-1.1,0.2-2.1,0.1-3.2-0.1c-0.1,0-0.2-0.1-0.3-0.2
	c-0.3-0.8-0.4-1.8-0.3-2.6C23.9,15.8,24,15.5,24,15.2z"/>
<path class="st4" d="M15.6,2.4c0,0,0,0.1-0.1,0.1c-0.4,0.6-0.8,1.3-1.2,1.9c-0.2,0.3-0.5,0.4-0.8,0.1c-0.6-0.5-1.4-0.8-2.2-1
	c-0.6-0.1-1.1-0.2-1.8-0.2c0.2-1.1,0-2.3-0.3-3.4c0.7,0,1.4,0,2.1,0.1c1.4,0.2,2.8,0.7,4,1.5C15.6,1.8,15.7,2.1,15.6,2.4"/>
<path class="st5" d="M25.9,3.6c0.2-1.1,0.1-2.3-0.3-3.4c0.6,0,1.1,0,1.7,0c0.8,0.1,1.6,0.3,2.3,0.6c0.7,0.3,1.4,0.7,2,1.1
	c0.2,0.2,0.3,0.5,0.2,0.7c-0.4,0.7-0.8,1.4-1.2,2c-0.1,0.3-0.4,0.4-0.7,0.3c-0.1,0-0.1-0.1-0.1-0.1c-0.6-0.5-1.4-0.8-2.2-1
	c-0.4-0.1-0.9-0.1-1.3-0.2C26.2,3.6,26,3.6,25.9,3.6z"/>
</svg>
