<svg xmlns="http://www.w3.org/2000/svg" viewBox="0 0 459.62522 168.59099"><defs><style>.cls-1{fill:#09bae7;}.cls-2{fill:#fcc300;}.cls-3{fill:#e81616;}.cls-4{fill:#4c18d0;}.cls-5{fill:#fa8300;}.cls-6{fill:#0665f2;}</style></defs><g id="Layer_2" data-name="Layer 2"><g id="Layer_1-2" data-name="Layer 1"><path d="M272.36336,137.08569q-3.13913,8.52885-6.28,17.04509a11.66488,11.66488,0,0,1-.99723,2.26416,2.89522,2.89522,0,0,1-2.62261,1.33045c-2.2473-.025-4.49506-.00739-6.74264-.00742a3.27468,3.27468,0,0,1-3.56338-2.39251c-.975-2.62326-1.89445-5.26725-2.87919-7.8868-1.26753-3.37185-2.57582-6.7284-3.87112-10.08979-.01825-.04731-.09558-.07186-.19585-.14276-1.24079,3.046-2.48457,6.07283-3.70778,9.10793-2.25444,5.59379-4.48738,11.19625-6.75432,16.78495a17.231,17.231,0,0,1-1.26143,2.48074,2.83653,2.83653,0,0,1-2.63914,1.4589c-2.84831-.04588-5.69919-.06808-8.54643.00373-1.94357.049-2.73343-1.13952-2.14074-2.92173.668-2.00874,1.52309-3.95592,2.313-5.92336,3.67912-9.16363,7.34353-18.33324,11.05843-27.48236,1.18112-2.90881,2.48906-5.76667,3.76922-8.63433a7.365,7.365,0,0,1,1.01-1.66014,2.703,2.703,0,0,1,2.189-1.07424c3.07048.02259,6.144.08687,9.21074-.02228a3.17753,3.17753,0,0,1,3.35721,2.13051c.95809,2.32919,1.8011,4.70594,2.68021,7.06727,1.03953,2.79234,2.06576,5.58961,3.137,8.49107,1.37684-3.80835,2.67307-7.56046,4.09786-11.26312a50.98687,50.98687,0,0,1,2.47745-5.261,2.22517,2.22517,0,0,1,2.11259-1.14026q4.98573.02441,9.97159.00229a2.15865,2.15865,0,0,1,2.1026,1.1384c1.1298,2.3168,2.25451,4.64221,3.23563,7.02416,2.685,6.51879,5.29628,13.0679,7.93414,19.60606.495,1.2268.95752,2.467,1.4696,3.68648,1.73988,4.14335,3.51347,8.27269,5.22548,12.42745a6.45193,6.45193,0,0,1,.38183,2.086,1.62066,1.62066,0,0,1-1.62,1.69557c-3.29207.02294-6.58468.03473-9.87645-.00492a2.53545,2.53545,0,0,1-2.31294-1.76649c-1.11381-2.63414-2.18425-5.2867-3.26088-7.93643-.8339-2.05231-1.63479-4.11809-2.479-6.16611q-2.86691-6.955-5.76572-13.89677C272.55963,137.19467,272.48113,137.16936,272.36336,137.08569Z"/><path d="M191.46781,43.1819c1.7242-4.70606,3.43491-9.41659,5.18458-14.1126a14.835,14.835,0,0,1,1.13034-2.20408,2.39154,2.39154,0,0,1,2.24268-1.238c3.29256.01729,6.58521.00993,9.87784.00437a2.16787,2.16787,0,0,1,2.1441,1.20983c1.10356,2.329,2.21955,4.6554,3.2165,7.0307,1.51256,3.60362,2.90686,7.25664,4.39113,10.87237,2.0793,5.06517,4.197,10.11456,6.29461,15.17223,1.30914,3.15655,2.63487,6.30661,3.89818,9.48145a7.06391,7.06391,0,0,1,.4192,2.17211,1.62,1.62,0,0,1-1.68575,1.72594c-3.26084.01788-6.52218.03167-9.78267-.00643a2.5877,2.5877,0,0,1-2.37083-1.82862c-1.10337-2.638-2.16581-5.29315-3.23815-7.944q-3.77169-9.32378-7.54715-18.646a13.8292,13.8292,0,0,0-.90017-1.579c-2.21224,6.07041-4.37738,12.07495-6.59722,18.0592-.56806,1.53142-1.4231,2.81233-3.8602,2.67119-2.11412-.12244-4.24093-.02818-6.36215-.02456a3.15389,3.15389,0,0,1-3.284-2.22052c-1.231-3.38062-2.49651-6.74867-3.73915-10.1251-.99679-2.70846-1.98065-5.4217-3.04692-8.34278-.20485.49322-.336.805-.4641,1.11791q-5.37223,13.11967-10.74192,26.24041c-.8697,2.12742-1.61272,2.6351-3.95512,2.6351-2.65942,0-5.321-.06608-7.97752.02231-1.89647.0631-2.81278-1.09337-2.15318-2.9738.793-2.26083,1.697-4.48376,2.58848-6.70887,2.1181-5.2867,4.22806-10.577,6.39662-15.84307,1.831-4.44628,3.74815-8.857,5.61027-13.29059.85638-2.039,1.65227-4.10348,2.51926-6.13781a6.97584,6.97584,0,0,1,1.00309-1.66338,2.70328,2.70328,0,0,1,2.18541-1.0816c3.10253.02007,6.20789.08367,9.30686-.0233a3.09855,3.09855,0,0,1,3.23236,2.03764c1.113,2.66355,2.07561,5.39023,3.08664,8.096.70933,1.89831,1.37877,3.81169,2.10277,5.70427A18.41747,18.41747,0,0,0,191.46781,43.1819Z"/><path d="M300.00244,40.06323v7.38371q0,11.96178-.0003,23.92357c-.00012,1.33752-.59062,1.93012-1.93465,1.93146q-4.65291.00467-9.30586-.00044A1.71586,1.71586,0,0,1,286.897,71.5393c-.013-.189-.002-.37961-.002-.56948q0-21.40779.0001-42.81559c0-1.83826.68836-2.52041,2.54144-2.52041,2.65883,0,5.31829-.03207,7.976.022a5.4651,5.4651,0,0,1,2.03821.47676c2.47814,1.09416,4.913,2.286,7.38791,3.38782,4.637,2.06443,9.28953,4.094,13.93919,6.12994.44293.19395.91114.33016,1.45021.52266,0-2.90258-.00095-5.71151.00042-8.52044a1.76166,1.76166,0,0,1,1.97663-2.018c2.912-.00238,5.82606.06127,8.73514-.03118a2.25158,2.25158,0,0,1,2.23276,2.18618c-.042,14.5249-.027,29.05-.02838,43.575a1.73137,1.73137,0,0,1-1.95772,1.93772q-4.60543.00331-9.2109-.00045c-1.22379-.00139-1.74686-.53038-1.74714-1.76317-.00165-6.96189-.01475-13.92384.01867-20.88556.00373-.77952-.27931-1.01714-.97108-1.294-2.23067-.89261-4.40715-1.92051-6.60436-2.89665q-7.14232-3.17307-14.28573-6.34364A1.8822,1.8822,0,0,0,300.00244,40.06323Z"/><path d="M193.31821,167.97681c-13.606.18026-25.01621-10.53319-24.75893-25.26567.22942-13.13782,10.64259-25.06418,26.66551-24.1045,11.70349.701,23.5854,10.0747,22.6876,26.53C217.25341,157.21486,207.77331,168.03154,193.31821,167.97681Zm.1175-37.49564c-.74332.08926-1.48794.169-2.22975.26949a9.87442,9.87442,0,0,0-7.05872,4.39331,14.503,14.503,0,0,0-2.04667,11.7369,11.28742,11.28742,0,0,0,12.87837,9.14434,10.24974,10.24974,0,0,0,7.36125-4.2374,14.35507,14.35507,0,0,0,2.3141-11.75779C203.607,134.654,199.37339,130.385,193.43571,130.48117Z"/><path d="M98.83181,155.092H80.9753c0,3.06072-.07839,6.092.0245,9.11713.0842,2.47568-.58779,2.88611-2.88347,2.83088-2.81606-.06775-5.635-.01443-8.4527-.01693-1.28755-.00115-1.7952-.5142-1.79527-1.81232q-.00117-21.93474.0001-43.86947a1.76665,1.76665,0,0,1,2.01514-1.986q4.464-.003,8.928,0a1.89372,1.89372,0,0,1,2.16354,2.15637c.00039,7.46817.00017,14.93633.00017,22.46834H98.83181v-.9574q0-10.73.00038-21.46c.0002-1.566.6505-2.2077,2.23061-2.20789q4.369-.0005,8.738.00073c1.45506.00138,2.13817.67175,2.1382,2.08955q.00051,21.83975-.00009,43.67947c-.00005,1.34076-.5368,1.89556-1.85784,1.89769q-4.70145.00755-9.40287.00052a1.62731,1.62731,0,0,1-1.84413-1.83409c-.007-3.03857-.00229-6.07716-.00229-9.11573Z"/><path d="M158.23868,152.6572c.98992,2.10339,2.02318,4.34231,3.09506,6.56258.84491,1.75011,1.73233,3.47983,2.61029,5.21383a1.666,1.666,0,0,1-1.50783,2.56769c-3.13167.06874-6.26724.07572-9.39837-.00462a2.90355,2.90355,0,0,1-2.55278-1.91183c-.92029-2.01678-1.87145-4.02093-2.72765-6.06472a1.50172,1.50172,0,0,0-1.72406-1.15381c-2.64842.12393-5.30651.04154-8.06919.04154,0,2.24249,0,4.4445,0,6.64651,0,1.89509-.56355,2.4695-2.4226,2.4695q-4.36746,0-8.73495-.00072a1.719,1.719,0,0,1-1.94912-1.94751q-.0018-21.97447-.00006-43.949c.00011-1.24138.5165-1.77006,1.741-1.77061,6.45627-.00288,12.91519-.11308,19.36783.03987a17.95361,17.95361,0,0,1,10.67443,4.10178,22.96815,22.96815,0,0,1,4.94427,5.71215,17.43,17.43,0,0,1,2.55716,10.92363,14.94114,14.94114,0,0,1-1.94728,6.90179C161.04309,148.96111,159.61622,150.72244,158.23868,152.6572Zm-20.22062-23.46291v18.26815c2.34753,0,4.65691.17231,6.92692-.05258a6.95874,6.95874,0,0,0,4.92222-2.74447,9.49041,9.49041,0,0,0,1.96088-7.49146c-.549-3.56523-2.26333-6.22247-5.83129-7.44922C143.38762,128.82761,140.709,129.42863,138.01806,129.19429Z"/><path d="M246.50284,65.70632c-.67417,1.90414-1.32571,3.73-1.96676,5.55948a2.51023,2.51023,0,0,1-2.82844,2.03719q-4.32129,0-8.64259-.00115a1.84762,1.84762,0,0,1-1.89652-2.63676c.9715-2.59345,2.03944-5.15183,3.11018-7.7068,1.30973-3.12523,2.69473-6.21907,3.9927-9.34906q4.29708-10.36233,8.53747-20.74814c.526-1.2815.99007-2.58931,1.54547-3.85751a12.28416,12.28416,0,0,1,1.21048-2.20246,2.70531,2.70531,0,0,1,2.31842-1.17162c2.08933.01405,4.17925.03,6.26807-.00534a2.49446,2.49446,0,0,1,2.52487,1.67539c.85565,2.01012,1.66459,4.04008,2.51738,6.05145,1.8177,4.28716,3.67462,8.55785,5.47256,12.85325,2.99621,7.158,5.95257,14.3327,8.94291,21.4932.38183.91431.959,1.75332,1.28471,2.68354.7413,2.1172-.19866,2.81657-1.88787,2.88544-3.12894.12755-6.26722.06748-9.40066.02074-1.19441-.01782-1.78324-.93077-2.155-1.91838-.559-1.48472-1.051-2.99554-1.53856-4.50588a1.44666,1.44666,0,0,0-1.60436-1.18053C257.05384,65.73222,251.7997,65.70632,246.50284,65.70632ZM260.0945,55.23127c-1.66088-4.74666-3.31234-9.46639-5.0448-14.41758-1.74431,4.923-3.41353,9.634-5.10843,14.41758Z"/><path d="M81.99525,65.70636c-.67351,1.90134-1.32557,3.72718-1.96676,5.55684A2.50754,2.50754,0,0,1,77.20217,73.303q-4.32162,0-8.64324-.00115a1.85072,1.85072,0,0,1-1.90007-2.63619c.84724-2.31122,1.8036-4.58292,2.734-6.86308,1.64-4.01889,3.2795-8.03808,4.94742-12.04542Q79.2916,39.86121,84.2737,27.9781c.64076-1.533,1.346-2.43251,3.54742-2.3577,1.89742.06448,3.7995.04546,5.69813.00238a2.56386,2.56386,0,0,1,2.66587,1.73882q3.11967,7.5043,6.25816,15.00078c2.13963,5.08448,4.31631,10.15339,6.45908,15.23656q2.65605,6.3008,5.26562,12.6211c.79111,1.921-.04847,3.08191-2.16856,3.0827-2.78611.001-5.57373-.05536-8.35771.02147a2.66292,2.66292,0,0,1-2.91559-2.07214c-.58644-1.63716-1.11859-3.29408-1.72748-4.92256a1.04,1.04,0,0,0-.72-.59706C92.86626,65.69822,87.45359,65.70636,81.99525,65.70636Zm8.64182-24.624-.22722-.04346c-1.72727,4.6924-3.45452,9.38481-5.21838,14.17662H95.58126C93.92076,50.46894,92.27892,45.77565,90.63707,41.08237Z"/><path d="M314.12731,159.42725c-.66191,1.87808-1.31808,3.72892-1.96628,5.58256a2.52988,2.52988,0,0,1-2.84988,2.01409c-2.84919,0-5.701-.073-8.54654.02891a1.93372,1.93372,0,0,1-1.96479-2.68925c.88431-2.33037,1.827-4.63889,2.7655-6.94835,1.69209-4.1643,3.37077-8.33438,5.10748-12.48011,1.96293-4.68585,4.0012-9.34011,5.97276-14.0224,1.26607-3.00682,2.47084-6.03943,3.703-9.06054.63892-1.56659,1.272-2.596,3.62861-2.51126,1.897.06821,3.79907.0437,5.6977.00356a2.55712,2.55712,0,0,1,2.649,1.758c1.63428,3.95392,3.28829,7.89969,4.92886,11.851.8386,2.01976,1.64824,4.05167,2.49947,6.06607q4.53414,10.73,9.08645,21.45236c.51714,1.2216,1.041,2.44151,1.513,3.68081.64328,1.68923-.16332,2.85994-1.96173,2.86777-2.8808.01257-5.76305-.04977-8.642.02368a2.62876,2.62876,0,0,1-2.8704-2.00755c-.61258-1.62754-1.16081-3.27971-1.71231-4.92945-.13565-.40576-.23615-.6945-.77933-.69244C324.974,159.43535,319.56209,159.42725,314.12731,159.42725Zm8.63118-24.65734-.24291-.04516-5.176,14.22538h10.38105C326.05582,144.19254,324.40714,139.48123,322.75849,134.76991Z"/><path d="M417.73473,144.08235c.19525-6.1221,1.603-11.13145,4.91816-15.39778a25.35553,25.35553,0,0,1,14.25338-9.63986,24.6904,24.6904,0,0,1,14.99431.92319,22.99075,22.99075,0,0,1,7.0571,4.01364,1.97966,1.97966,0,0,1,.3541,2.54962c-1.22734,2.08217-2.59228,4.09613-3.65252,6.25967a2.36163,2.36163,0,0,1-3.74388.82872,14.90828,14.90828,0,0,0-5.9952-2.54821,13.58686,13.58686,0,0,0-7.65551.73074c-4.23581,1.6808-6.42567,5.00963-7.12912,9.26687a12.69066,12.69066,0,0,0,3.87128,11.92279,11.32691,11.32691,0,0,0,6.248,2.80624,14.26708,14.26708,0,0,0,10.62841-2.63716c1.32988-.93623,2.965-.8676,3.80668.85279,1.05889,2.1643,2.42569,4.17723,3.64194,6.26573.60041,1.03088.277,2.20128-.9513,3.07072a26.7538,26.7538,0,0,1-10.63244,4.60566,21.81985,21.81985,0,0,1-4.902.54074,26.60519,26.60519,0,0,1-8.91815-1.7472,27.36009,27.36009,0,0,1-10.41632-7.64185,22.9291,22.9291,0,0,1-5.04014-10.122C418.04611,147.14216,417.90136,145.23415,417.73473,144.08235Z"/><path d="M372.37827,130.55983v1.11579q0,16.56125-.00018,33.12246c0,1.57883-.64317,2.22476-2.21745,2.22545-2.84789.00122-5.69884-.07916-8.54258.02925-1.79071.06828-2.55284-.94525-2.54729-2.53843.02367-6.83321.01011-13.66653.01011-20.49982v-13.4547h-3.34717q-4.41423,0-8.82847-.00036c-1.236-.00048-1.86332-.57257-1.87463-1.80693-.02321-2.53063-.01737-5.06169-.00225-7.59245a1.66671,1.66671,0,0,1,1.80787-1.80294q18.98593-.00571,37.9719-.00015a1.69431,1.69431,0,0,1,1.81328,1.80363c.01312,2.43587.017,4.87194-.00084,7.30776a1.88115,1.88115,0,0,1-2.16055,2.09138C380.47484,130.55993,376.48965,130.55983,372.37827,130.55983Z"/><path d="M133.37757,42.54312c1.21635-2.14789,2.4327-4.26563,3.61988-6.39957,1.62247-2.91637,3.21157-5.8513,4.83792-8.76547a3.18823,3.18823,0,0,1,3.048-1.75882c3.32331.04529,6.64768.00923,9.97155.022a5.73154,5.73154,0,0,1,1.09265.16641c.85846.17331.97832.68781.54971,1.3577q-2.88437,4.50816-5.7984,8.99735c-.97848,1.51023-1.97244,3.0105-2.96666,4.51047-2.4772,3.73739-4.96836,7.46561-7.42347,11.21742a2.66525,2.66525,0,0,0-.4264,1.36737c-.02789,6.04478-.01825,12.08974-.0188,18.13466-.00013,1.398-.51653,1.90889-1.93626,1.90975q-4.65349.0028-9.307-.00026c-1.34457-.00113-1.86349-.52616-1.86366-1.87734-.00078-5.98162.00615-11.96326-.01474-17.9448a2.34829,2.34829,0,0,0-.33445-1.20944q-3.8727-5.97717-7.80013-11.91883c-2.7937-4.22775-5.621-8.43331-8.40042-12.67037-.25179-.38386-.49906-1.07419-.32284-1.35937a1.82926,1.82926,0,0,1,1.35574-.65937c3.67141-.05229,7.34388-.029,11.016-.02871a2.35062,2.35062,0,0,1,2.05928,1.40116q2.66374,4.57617,5.282,9.17878c1.02411,1.80024,1.99962,3.62809,3.02,5.43049A6.53952,6.53952,0,0,0,133.37757,42.54312Z"/><path class="cls-1" d="M19.236,164.03891c-1.89868-1.31083-3.8762-2.48484-5.63453-3.92613a38.10151,38.10151,0,0,1-11.20488-15.643A33.60688,33.60688,0,0,1,.02717,132.33366a32.90655,32.90655,0,0,1,1.71416-12.24975A41.831,41.831,0,0,1,8.167,108.28007a34.66413,34.66413,0,0,1,7.53183-7.13016,40.79723,40.79723,0,0,1,9.94656-5.0461c.4753-.15819.72434-.09616.82713.39905a45.33837,45.33837,0,0,1,1.07976,5.41075,17.90188,17.90188,0,0,1-.72763,7.6631,2.59273,2.59273,0,0,1-.94078,1.28048,23.91047,23.91047,0,0,0-8.91439,10.13456A23.25648,23.25648,0,0,0,14.757,133.59386a24.17953,24.17953,0,0,0,1.58312,6.92465,23.6974,23.6974,0,0,0,4.6233,7.46163,1.03817,1.03817,0,0,1,.19259.86895,32.80068,32.80068,0,0,0-1.91165,9.55325C19.19738,160.2045,19.236,162.00888,19.236,164.03891Z"/><path class="cls-2" d="M26.11255,1.6244A18.872,18.872,0,0,1,27.562,10.65487a39.28529,39.28529,0,0,1-.96227,5.13053,1.5287,1.5287,0,0,1-.6391.88762c-4.276,2.55968-7.05837,6.31987-9.14941,10.77755a24.23815,24.23815,0,0,0-1.89032,12.12906A20.27043,20.27043,0,0,0,16.18266,45.388a25.00315,25.00315,0,0,0,4.82157,8.15517,1.11919,1.11919,0,0,1,.15451.87785c-.61557,2.636-1.48325,5.23441-1.843,7.90232a54.04776,54.04776,0,0,0-.0653,7.13367.348.348,0,0,1-.22535-.00606A34.61093,34.61093,0,0,1,9.56239,61.904,41.607,41.607,0,0,1,2.29567,49.71045a33.414,33.414,0,0,1-2.253-11.04968A32.39038,32.39038,0,0,1,1.62813,26.33271,40.33322,40.33322,0,0,1,8.736,13.40938a35.892,35.892,0,0,1,6.80524-6.38765,40.00953,40.00953,0,0,1,8.867-4.74678C24.95966,2.07169,25.50652,1.85611,26.11255,1.6244Z"/><path d="M407.90132,143.37106q0,10.6791-.00023,21.3582a2.04578,2.04578,0,0,1-2.30367,2.29377c-2.62692.00307-5.25477-.04318-7.88044.01416-2.282.04983-2.55856-1.04812-2.69793-2.63526-.011-.12559-.00148-.253-.00148-.37956q0-20.78866.00709-41.57729a7.11776,7.11776,0,0,1,.172-1.58481,2.18418,2.18418,0,0,1,2.14585-1.50341q4.03533-.00933,8.07063.00021a2.42662,2.42662,0,0,1,2.48765,2.56087Q407.90255,132.64449,407.90132,143.37106Z"/><path class="cls-3" d="M28.69756,59.32464c2.39895.43632,4.63273.97788,6.8987,1.22842a23.32013,23.32013,0,0,0,16.1366-4.28621c1.64054-1.12214,2.60155-.91745,3.63054.76553,1.4138,2.31237,2.76721,4.66157,4.15988,6.987a7.99717,7.99717,0,0,1,.90192,1.34469c.376,1.12-.36213,1.8226-1.17829,2.37344a39.03553,39.03553,0,0,1-12.96707,5.73544,45.69906,45.69906,0,0,1-12.10447.73981,25.45875,25.45875,0,0,1-4.24945-.68911,1.32211,1.32211,0,0,1-.7992-.71608,19.52685,19.52685,0,0,1-.65824-12.65779c.07121-.2663.14063-.53319.21862-.79752C28.7131,59.26412,28.7633,59.18313,28.69756,59.32464Z"/><path class="cls-4" d="M28.71707,153.51821c1.48759.3569,2.81465.679,4.14353.99339a22.87446,22.87446,0,0,0,11.5678-.5011A22.72145,22.72145,0,0,0,51.648,150.501c1.47071-1.05483,2.69578-.74749,3.619.79605,1.63027,2.72567,3.31608,5.41915,4.88708,8.17822a1.36969,1.36969,0,0,1-.25739,1.77015,28.64811,28.64811,0,0,1-8.42457,4.82688c-5.4511,2.27152-11.17951,2.71375-16.99371,2.45149a30.35009,30.35009,0,0,1-4.29092-.5861,1.54433,1.54433,0,0,1-.9956-.82239,18.674,18.674,0,0,1-1.0995-10.408C28.30549,155.67081,28.49976,154.63047,28.71707,153.51821Z"/><path class="cls-5" d="M34.914.01783A49.24668,49.24668,0,0,1,45.38942.64129,36.32985,36.32985,0,0,1,58.719,6.25938c.79257.53881,1.77275,1.08359,1.52975,2.31079A4.13893,4.13893,0,0,1,59.631,9.73334q-2.13916,3.63685-4.286,7.26918c-.52229.88538-1.08738,1.75522-2.298,1.58517a3.13406,3.13406,0,0,1-1.36473-.54391,24.3219,24.3219,0,0,0-10.95055-4.33847c-1.48013-.223-2.99723-.20063-4.62467-.29774A30.49945,30.49945,0,0,0,34.914.01783Z"/><path class="cls-6" d="M36.27633,107.67A30.25567,30.25567,0,0,0,35.02924,94.1042c3.14009.19972,6.07583.23717,8.96925.6062A32.62148,32.62148,0,0,1,55.612,98.692c1.12.61674,2.19108,1.32531,3.26511,2.02183a2.182,2.182,0,0,1,.78572,3.03688q-2.30946,4.02752-4.70739,8.00407c-.78285,1.29583-1.87027,1.46892-3.21936.69338a49.8985,49.8985,0,0,0-5.16553-2.83312,19.27659,19.27659,0,0,0-7.05155-1.66607C38.48984,107.92128,37.46378,107.77605,36.27633,107.67Z"/></g></g></svg>