<svg xmlns="http://www.w3.org/2000/svg" viewBox="0 0 568.77579 347.52126"><defs><style>.cls-1{fill:#4ac8e8;}.cls-2{fill:#fee144;}.cls-3{fill:#fe4444;}.cls-4{fill:#785bd5;}.cls-5{fill:#fea544;}.cls-6{fill:#448ffe;}</style></defs><g id="Layer_2" data-name="Layer 2"><g id="Layer_1-2" data-name="Layer 1"><path class="cls-1" d="M412.3182,8.97c8.77274,21.74312,8.29746,43.39519,1.88059,65.188-.36011,1.22293-1.771,2.33362-2.95331,3.08865-32.144,20.52683-49.08185,49.93936-51.85352,87.853-2.35467,32.20962,6.2743,60.72464,27.50119,85.32016,1.15262,1.33551,1.433,4.34213.82715,6.13388a165.46194,165.46194,0,0,0-8.83188,51.3027c-.06677,5.55463.77646,11.12012,1.21055,16.77558-49.85273-26.095-93.49424-86.80863-88.09665-162.72217C297.50888,84.46376,351.05374,27.35254,412.3182,8.97Z"/><path class="cls-2" d="M120.29066,9.16288c1.77689,7.59671,4.191,15.04982,5.16049,22.68634a94.71854,94.71854,0,0,1-3.88514,41.3451,11.5395,11.5395,0,0,1-4.28008,5.611c-28.60336,19.11419-44.78142,45.898-48.83859,79.84445-4.0811,34.14667,3.89342,64.98565,26.67605,91.45068.97641,1.13422,1.18932,3.69837.67151,5.22891-6.50708,19.2345-10.23454,38.85678-8.92588,59.25272.18974,2.957.46434,5.90869.784,9.92169a168.98412,168.98412,0,0,1-50.96515-43.87881C11.93544,248.72444-.65592,212.3333.02632,172.15468,1.43719,89.06557,57.44278,28.293,120.29066,9.16288Z"/><path class="cls-3" d="M132.15027,277.19118c7.97457,1.95267,15.595,4.41382,23.40914,5.626,29.40259,4.56125,56.39383-1.91437,80.95142-18.6879,9.0907-6.2092,12.8909-5.36087,18.46011,4.00214q9.56114,16.07432,19.07526,32.17648c4.94894,8.42066,4.03915,11.98358-3.96851,17.2937-25.74957,17.07532-54.05316,26.12879-84.79357,29.32111-16.18082,1.68042-31.54337-1.14209-47.15342-3.509a5.89146,5.89146,0,0,1-3.89792-3.07093C125.98426,319.49819,125.85313,298.36782,132.15027,277.19118Z"/><path class="cls-4" d="M424.2633,278.09194c11.09442,2.00818,21.57172,4.75918,32.20581,5.66006,25.93476,2.19708,49.69806-4.64346,71.15454-19.394,9.4491-6.49585,13.25318-5.7001,19.11158,4.21668,7.01037,11.86666,14.07074,23.70608,20.8836,35.68588,2.46259,4.33026.91529,8.6109-3.89227,11.90869-20.00348,13.72137-41.81769,23.39007-65.73242,27.57251a222.726,222.726,0,0,1-36.93079,3.7785c-10.30383.0567-20.63226-2.37848-30.91943-3.91351a4.94539,4.94539,0,0,1-3.29315-2.54913C418.49127,320.10317,418.27746,298.85982,424.2633,278.09194Z"/><path class="cls-5" d="M165.78671,62.79015C169.06787,41.876,166.8443,21.61887,160.2445.53781c7.30368-.12469,14.0676-.77424,20.741-.2566,22.35178,1.73379,44.16571,6.11592,64.451,16.04168,8.944,4.37636,17.49442,9.60186,26.0094,14.79308,4.8858,2.97868,6.23257,7.96159,3.42245,12.92686-7.29025,12.88108-14.73159,25.68683-22.51205,38.27576-3.64688,5.90073-8.75189,6.41269-15.02631,2.04257-14.85284-10.345-31.08068-17.32348-49.01208-19.89111C181.00711,63.42324,173.55835,63.33937,165.78671,62.79015Z"/><path class="cls-6" d="M458.56872,62.79491c3.4729-21.0571,1.04-41.29691-5.54645-62.649,6.58619,0,12.48548-.36749,18.32581.064,24.56543,1.81476,48.3446,6.91638,70.37341,18.38518,7.06623,3.67889,13.86628,7.90869,20.58441,12.20488,5.96381,3.81375,7.01313,8.29128,3.47278,14.47343q-10.28412,17.95839-20.954,35.69455c-4.30542,7.1225-9.32409,8.107-16.29748,3.25226-14.70764-10.239-30.7392-17.1907-48.52612-19.66934C473.13287,63.59374,466.15936,63.39275,458.56872,62.79491Z"/></g></g></svg>