<svg xmlns="http://www.w3.org/2000/svg" viewBox="0 0 19.94338 19.94152"><defs><style>.cls-1{fill:#448fff;}.cls-2{fill:#4ac9e9;}</style></defs><g id="Layer_2" data-name="Layer 2"><g id="Layer_1-2" data-name="Layer 1"><g id="PxH4Pv.tif"><path class="cls-1" d="M19.46763.86609A2.0141,2.0141,0,0,1,19.372,3.57574q-7.88878,7.88771-15.77815,15.775c-1.65319,1.77694-4.60388-.84-3.24718-2.76534L16.60545.3266a2.14127,2.14127,0,0,1,2.48882.16614Z"/><path class="cls-2" d="M19.08558,19.44678a2.04949,2.04949,0,0,1-2.75839-.099Q8.46343,11.47442.58925,3.61125a1.91477,1.91477,0,0,1-.37706-2.249,2.10739,2.10739,0,0,1,3.374-.77616q7.88829,7.89041,15.77667,15.78081a1.99907,1.99907,0,0,1,.09611,2.70648Z"/></g></g></g></svg>