<svg xmlns="http://www.w3.org/2000/svg" viewBox="0 0 26.284 21.29983"><defs><style>.cls-1{fill:none;}.cls-2{fill:#ffa543;}.cls-3{fill:#ffe144;}.cls-4{fill:#f44;}</style></defs><g id="Layer_2" data-name="Layer 2"><g id="Layer_1-2" data-name="Layer 1"><g id="PxH4Pv.tif"><path class="cls-1" d="M0,21.32514" transform="translate(-0.01946)"/><path class="cls-2" d="M26.30347,2.40534a2.01411,2.01411,0,0,1-1.98364,1.84839Q13.16416,4.253,2.00839,4.25149C-.41708,4.339-.653.40206,1.66768,0h22.9934a2.14127,2.14127,0,0,1,1.64239,1.87734Z" transform="translate(-0.01946)"/><path class="cls-3" d="M26.30347,10.912A2.04949,2.04949,0,0,1,24.283,12.79253q-11.12784-.00679-22.25582.001A1.91476,1.91476,0,0,1,.1703,11.46988,2.1074,2.1074,0,0,1,2.00723,8.53529q11.15723.0015,22.31451.00293A1.99907,1.99907,0,0,1,26.30347,10.384Z" transform="translate(-0.01946)"/><path class="cls-4" d="M26.30347,19.44807a2.00784,2.00784,0,0,1-1.96739,1.84823q-11.17174-.00046-22.3436-.00227c-1.48615.08292-2.3402-1.68032-1.818-2.94634a1.93619,1.93619,0,0,1,1.88226-1.30837q11.12783.00734,22.25567-.00033a2.03222,2.03222,0,0,1,1.991,1.88108Z" transform="translate(-0.01946)"/></g></g></g></svg>